<svg width="51" height="60" viewBox="0 0 51 60" fill="none" xmlns="http://www.w3.org/2000/svg">
<path fill-rule="evenodd" clip-rule="evenodd" d="M22.2197 59.5049C9.94355 59.5049 0 49.6068 0 37.3897V28.2171C0 16 9.94355 6.10193 22.2197 6.10193C34.4946 6.10193 44.4381 16 44.4381 28.2171V37.3897C44.4381 49.6068 34.4946 59.5049 22.2197 59.5049Z" fill="#A9E2FF"/>
<path fill-rule="evenodd" clip-rule="evenodd" d="M27.673 54.0892C15.3981 54.0892 5.45459 44.1911 5.45459 31.974V22.8015C5.45459 10.5843 15.3981 0.686279 27.673 0.686279C39.9492 0.686279 49.8927 10.5843 49.8927 22.8015V31.974C49.881 44.1911 39.9349 54.0892 27.673 54.0892Z" fill="white"/>
<path fill-rule="evenodd" clip-rule="evenodd" d="M19.5248 1.38625C12.1443 1.38625 6.14355 7.35877 6.14355 14.7046V40.0716C6.14355 47.4174 12.1443 53.39 19.5248 53.39H35.7959C43.1764 53.39 49.1772 47.4174 49.1772 40.0716V14.7046C49.1772 7.35877 43.1764 1.38625 35.7959 1.38625H19.5248ZM35.8089 54.7762H19.5379C11.3893 54.7762 4.76376 48.1818 4.76376 40.0716V14.7046C4.76376 6.59439 11.3893 0 19.5379 0H35.8089C43.9587 0 50.583 6.59439 50.583 14.7046V40.0716C50.5713 48.1818 43.9444 54.7762 35.8089 54.7762Z" fill="#00B487"/>
<path fill-rule="evenodd" clip-rule="evenodd" d="M20.3841 20.4047L15.0732 25.6906L12.0143 22.633" fill="white"/>
<path fill-rule="evenodd" clip-rule="evenodd" d="M15.0731 26.377C14.8909 26.377 14.7086 26.2993 14.5785 26.1697L11.5208 23.1122C11.2462 22.8414 11.2462 22.4126 11.5208 22.1405C11.7929 21.8698 12.2224 21.8698 12.4971 22.1405L15.0731 24.7057L19.8893 19.9122C20.1627 19.6401 20.5922 19.6401 20.8656 19.9122C21.139 20.1842 21.139 20.6118 20.8656 20.8838L15.5547 26.1697C15.4376 26.2993 15.2553 26.377 15.0731 26.377Z" fill="#00B487"/>
<path fill-rule="evenodd" clip-rule="evenodd" d="M44.075 23.605H25.772C25.3945 23.605 25.0834 23.294 25.0834 22.9183C25.0834 22.5426 25.3945 22.2317 25.772 22.2317H44.075C44.4525 22.2317 44.7636 22.5426 44.7636 22.9183C44.7779 23.294 44.4655 23.605 44.075 23.605Z" fill="#00B487"/>
<path fill-rule="evenodd" clip-rule="evenodd" d="M20.3841 33.9954L15.0732 39.2812L12.0143 36.2237" fill="white"/>
<path fill-rule="evenodd" clip-rule="evenodd" d="M15.0731 39.9677C14.8909 39.9677 14.7086 39.89 14.5785 39.7604L11.5208 36.7029C11.2462 36.4308 11.2462 35.9904 11.5208 35.7312C11.7929 35.4592 12.2224 35.4592 12.4971 35.7312L15.0731 38.2964L19.8893 33.5029C20.1627 33.2308 20.5922 33.2308 20.8656 33.5029C21.139 33.7749 21.139 34.2025 20.8656 34.4745L15.5547 39.7604C15.4376 39.9029 15.2553 39.9677 15.0731 39.9677Z" fill="#00B487"/>
<path fill-rule="evenodd" clip-rule="evenodd" d="M37.5666 37.1951H25.7863C25.4088 37.1951 25.0964 36.8841 25.0964 36.5084C25.0964 36.1327 25.4088 35.8218 25.7863 35.8218H37.5666C37.944 35.8218 38.2551 36.1327 38.2551 36.5084C38.2551 36.8841 37.944 37.1951 37.5666 37.1951Z" fill="#00B487"/>
<path fill-rule="evenodd" clip-rule="evenodd" d="M6.65186 14.0824H48.7613V9.27588H6.65186V14.0824Z" fill="#00B487"/>
</svg>
