<svg width="24" height="21" viewBox="0 0 24 21" fill="none" xmlns="http://www.w3.org/2000/svg">
<g clip-path="url(#clip0_2_233)">
<path d="M4.0128 0C3.17295 0 2.48089 0.702749 2.48089 1.55556V3.11212H1.60123C0.76138 3.11212 0.0688171 3.81335 0.0688171 4.66616L0.212434 19.452C0.225642 20.2948 0.904458 21.0005 1.74435 21.0005H19.9867C20.8266 21.0005 21.5191 20.2973 21.5191 19.4444V17.8889H22.3988C23.2386 17.8889 23.9302 17.1858 23.9302 16.3333V4.14815C23.9302 3.29564 23.2386 2.59259 22.3988 2.59259H13.6616L12.5261 0.286603C12.4396 0.110939 12.2627 0 12.0693 0H4.0128ZM4.0128 1.03704H11.7537L12.8891 3.34303C12.9757 3.51869 13.1525 3.62964 13.3459 3.62963H22.3988C22.6905 3.62963 22.9089 3.85162 22.9089 4.14815V16.3333C22.9089 16.6299 22.6905 16.8519 22.3988 16.8519H21.5191V7.25926C21.5191 6.40645 20.8266 5.7032 19.9867 5.7032H11.251L10.1145 3.39721C10.0278 3.22246 9.85148 3.1122 9.65874 3.11212H3.50216V1.55556C3.50216 1.25933 3.72107 1.03704 4.0128 1.03704ZM1.60123 4.14714H9.34358L10.4786 6.45363C10.5648 6.62917 10.7412 6.74027 10.9343 6.74074H19.9867C20.2784 6.74074 20.4978 6.96303 20.4978 7.25926V19.4444C20.4978 19.7407 20.2784 19.963 19.9867 19.963H1.74435C1.45267 19.963 1.23851 19.743 1.23371 19.4368L1.09059 4.66616C1.09059 4.36994 1.30951 4.14714 1.60123 4.14714Z" fill="#4C4D5F"/>
</g>
<defs>
<clipPath id="clip0_2_233">
<rect width="24" height="21" fill="white"/>
</clipPath>
</defs>
</svg>
