<svg width="47" height="55" viewBox="0 0 47 55" fill="none" xmlns="http://www.w3.org/2000/svg">
<path fill-rule="evenodd" clip-rule="evenodd" d="M13.5091 8.01477H38.2682C38.4818 8.01477 38.6504 8.18433 38.6504 8.3991V44.2325C38.6504 49.6358 34.3009 54.0104 28.9288 54.0104H0.38212C0.168583 54.0104 0 53.8408 0 53.626V8.3991" fill="#A9E2FF"/>
<path fill-rule="evenodd" clip-rule="evenodd" d="M12.3292 18.844L17.0945 15.5998L21.9946 18.844V8.03748H12.3292V18.844Z" fill="#00B487"/>
<path fill-rule="evenodd" clip-rule="evenodd" d="M29.3784 40.2535H7.74367C7.41774 40.2535 7.14801 39.9822 7.14801 39.6544C7.14801 39.3266 7.41774 39.0553 7.74367 39.0553H29.3784C29.7044 39.0553 29.9741 39.3266 29.9741 39.6544C29.9741 39.9935 29.7044 40.2535 29.3784 40.2535Z" fill="#00B487"/>
<path fill-rule="evenodd" clip-rule="evenodd" d="M25.1864 45.0008H7.73244C7.40651 45.0008 7.13678 44.7295 7.13678 44.4017C7.13678 44.0739 7.40651 43.8026 7.73244 43.8026H25.1864C25.5123 43.8026 25.782 44.0739 25.782 44.4017C25.782 44.7295 25.5235 45.0008 25.1864 45.0008Z" fill="#00B487"/>
<path fill-rule="evenodd" clip-rule="evenodd" d="M21.0503 0.587769H45.8095C46.0231 0.587769 46.1916 0.757327 46.1916 0.972101V36.8055C46.1916 42.2088 41.8422 46.5834 36.47 46.5834H7.92338C7.70984 46.5834 7.54126 46.4138 7.54126 46.199V0.972101" fill="white"/>
<path fill-rule="evenodd" clip-rule="evenodd" d="M36.459 47.1825H7.91235C7.37288 47.1825 6.93457 46.7417 6.93457 46.1991V0.972136C6.93457 0.644323 7.2043 0.373029 7.53023 0.373029C7.85615 0.373029 8.12589 0.644323 8.12589 0.972136V45.9843H36.459C41.494 45.9843 45.5849 41.8697 45.5849 36.8055V1.19821H21.0393C20.7134 1.19821 20.4437 0.92692 20.4437 0.599107C20.4437 0.271294 20.7134 0 21.0393 0H45.7985C46.3379 0 46.7763 0.440852 46.7763 0.98344V36.8168C46.7875 42.5253 42.1571 47.1825 36.459 47.1825Z" fill="#00B487"/>
<path fill-rule="evenodd" clip-rule="evenodd" d="M20.4099 11.3155L25.1864 8.07127L30.0752 11.3155V0.520264H20.4099V11.3155Z" fill="#00B487"/>
<path fill-rule="evenodd" clip-rule="evenodd" d="M36.9197 32.8382H15.2849C14.959 32.8382 14.6893 32.5669 14.6893 32.2391C14.6893 31.9113 14.959 31.64 15.2849 31.64H36.9197C37.2456 31.64 37.5154 31.9113 37.5154 32.2391C37.5154 32.5669 37.2569 32.8382 36.9197 32.8382Z" fill="#00B487"/>
<path fill-rule="evenodd" clip-rule="evenodd" d="M32.7276 37.5855H15.2737C14.9478 37.5855 14.678 37.3142 14.678 36.9864C14.678 36.6586 14.9478 36.3873 15.2737 36.3873H32.7276C33.0535 36.3873 33.3233 36.6586 33.3233 36.9864C33.3345 37.3142 33.0648 37.5855 32.7276 37.5855Z" fill="#00B487"/>
</svg>
