<svg width="18" height="25" viewBox="0 0 18 25" fill="none" xmlns="http://www.w3.org/2000/svg">
<g clip-path="url(#clip0_2_218)">
<path d="M15.7482 0H2.23269C1.05593 0 0.0981634 0.924703 0 2.09422C0 2.09422 0 8.97071 0 22.7237C0 24.2602 0.918834 25 2.23269 25H15.7482C16.9897 25 18 23.9744 18 22.7134V2.28661C18 1.0256 16.99 0 15.7482 0ZM16.8743 22.7131C16.8743 23.3433 16.3694 23.8562 15.7485 23.8562H2.23299C1.61209 23.8562 1.10725 23.3433 1.10725 22.7131V2.28631C1.10725 1.6558 1.61209 1.14315 2.23299 1.14315H15.7485C16.3694 1.14315 16.8743 1.6558 16.8743 2.28631V22.7131Z" fill="#4C4D5F"/>
<path d="M14.4 4H3.6C3.26863 4 3 4.26863 3 4.6C3 4.93137 3.26863 5.2 3.6 5.2H14.4C14.7314 5.2 15 4.93137 15 4.6C15 4.26863 14.7314 4 14.4 4Z" fill="#4C4D5F"/>
<path d="M9.4 9H3.6C3.26863 9 3 9.26863 3 9.6C3 9.93137 3.26863 10.2 3.6 10.2H9.4C9.73137 10.2 10 9.93137 10 9.6C10 9.26863 9.73137 9 9.4 9Z" fill="#4C4D5F"/>
<path d="M14.4 21H9.6C9.26863 21 9 21.2686 9 21.6C9 21.9314 9.26863 22.2 9.6 22.2H14.4C14.7314 22.2 15 21.9314 15 21.6C15 21.2686 14.7314 21 14.4 21Z" fill="#4C4D5F"/>
<path d="M11.4 12H3.6C3.26863 12 3 12.2686 3 12.6C3 12.9314 3.26863 13.2 3.6 13.2H11.4C11.7314 13.2 12 12.9314 12 12.6C12 12.2686 11.7314 12 11.4 12Z" fill="#4C4D5F"/>
<path d="M7.4 15H3.6C3.26863 15 3 15.2686 3 15.6C3 15.9314 3.26863 16.2 3.6 16.2H7.4C7.73137 16.2 8 15.9314 8 15.6C8 15.2686 7.73137 15 7.4 15Z" fill="#4C4D5F"/>
</g>
<defs>
<clipPath id="clip0_2_218">
<rect width="18" height="25" fill="white"/>
</clipPath>
</defs>
</svg>
