<svg width="50" height="63" viewBox="0 0 50 63" fill="none" xmlns="http://www.w3.org/2000/svg">
<path fill-rule="evenodd" clip-rule="evenodd" d="M22.2373 0H38.0148C44.3283 0 49.4362 5.11302 49.4362 11.4041V49.4056L44.304 55.0651L39.1705 49.4056L33.6356 55.0651L28.1968 49.4056L22.7604 55.0651L17.5296 49.4056L12.092 55.0651L7.6142 49.4056V0.400783" fill="#A9E2FF"/>
<path fill-rule="evenodd" clip-rule="evenodd" d="M15.2795 6.83752H31.057C37.3693 6.83752 42.4784 11.9505 42.4784 18.2416V56.2431L37.3462 61.9026L32.2127 56.2431L26.6766 61.9026L21.239 56.2431L15.8026 61.9026L10.5718 56.2431L5.13299 61.9026L0.656403 56.2431V7.23831" fill="white"/>
<path fill-rule="evenodd" clip-rule="evenodd" d="M37.3454 62.5466C37.163 62.5466 36.9926 62.4737 36.8722 62.3401L32.1998 57.1907L27.1405 62.3644C27.0176 62.4859 26.823 62.5587 26.677 62.5587C26.5067 62.5587 26.3364 62.4859 26.2148 62.3644L21.2394 57.1907L16.2641 62.3644C16.1437 62.4859 15.9722 62.5587 15.8019 62.5587H15.7909C15.6072 62.5587 15.4381 62.4859 15.3153 62.3523L10.5467 57.2028L5.58357 62.3644C5.45097 62.498 5.26729 62.5709 5.08482 62.5587C4.90235 62.5466 4.71988 62.4616 4.6104 62.3158L0.133811 56.6563C0.0486585 56.547 0 56.4012 0 56.2555V7.2507C0 6.8985 0.291951 6.60702 0.644726 6.60702C0.9975 6.60702 1.28945 6.8985 1.28945 7.2507V56.0247L5.1578 60.9192L10.0845 55.794C10.2061 55.6725 10.3764 55.5997 10.5467 55.5997H10.5589C10.7414 55.5997 10.9117 55.6725 11.0333 55.8061L15.8019 60.9556L20.765 55.794C21.0095 55.539 21.4584 55.539 21.7017 55.794L26.677 60.9677L31.7497 55.7819C31.8713 55.6604 32.0538 55.5997 32.2241 55.5875C32.4066 55.5875 32.5769 55.6725 32.6864 55.794L37.3454 60.9192L41.8342 55.9762V18.2176C41.8342 12.2787 36.9926 7.45716 31.0563 7.45716H15.28C14.9272 7.45716 14.6341 7.16568 14.6341 6.81348C14.6341 6.46128 14.9272 6.1698 15.28 6.1698H31.0563C37.7104 6.1698 43.1358 11.5743 43.1358 18.2297V56.2312C43.1358 56.3891 43.075 56.547 42.9655 56.6684L37.832 62.328C37.6982 62.4737 37.5291 62.5466 37.3454 62.5466Z" fill="#00B487"/>
<path fill-rule="evenodd" clip-rule="evenodd" d="M19.22 21.0473C19.22 20.2336 19.8161 19.602 21.0094 19.4806V22.784C19.5728 22.3103 19.22 21.8367 19.22 21.0473ZM22.4813 25.383C23.9155 25.8324 24.3291 26.3303 24.3291 27.1562C24.3291 28.0549 23.6722 28.6379 22.4813 28.7714V25.383ZM17.1167 29.1479C18.2468 29.9495 19.5375 30.4474 20.9352 30.5932V31.747C20.9352 32.1963 21.3001 32.5485 21.7502 32.5485C22.2003 32.5485 22.5531 32.1963 22.5531 31.747V30.6296C24.9252 30.411 26.5322 29.0508 26.5322 26.9983C26.5322 24.9944 25.3157 23.8649 22.4923 23.1605V19.5899C23.1248 19.7356 23.7574 20.0271 24.4155 20.4036C24.5968 20.5129 24.7792 20.5736 24.9629 20.5736C25.5456 20.5736 26.0079 20.1242 26.0079 19.5534C26.0079 19.1041 25.7402 18.8247 25.4604 18.6547C24.6101 18.1203 23.6722 17.756 22.5653 17.6345V17.2216C22.5653 16.7722 22.2125 16.42 21.7624 16.42C21.3135 16.42 20.9474 16.7722 20.9474 17.2216V17.6102C18.6118 17.7924 17.0304 19.1769 17.0304 21.1566C17.0304 23.2576 18.2955 24.29 21.0204 24.9944V28.6621C19.9997 28.48 19.1361 28.0428 18.259 27.4112C18.0887 27.2776 17.8709 27.2047 17.6386 27.2047C17.0559 27.2047 16.6168 27.6541 16.6168 28.2249C16.6168 28.65 16.8004 28.9415 17.1167 29.1479Z" fill="#00B487"/>
<path fill-rule="evenodd" clip-rule="evenodd" d="M33.271 40.2603H9.85408C9.5013 40.2603 9.20935 39.9688 9.20935 39.6166C9.20935 39.2644 9.5013 38.9729 9.85408 38.9729H33.271C33.6226 38.9729 33.9145 39.2644 33.9145 39.6166C33.9267 39.9688 33.636 40.2603 33.271 40.2603Z" fill="#00B487"/>
<path fill-rule="evenodd" clip-rule="evenodd" d="M31.008 45.3491H12.1163C11.7636 45.3491 11.4704 45.0576 11.4704 44.7054C11.4704 44.3532 11.7636 44.0618 12.1163 44.0618H31.008C31.3608 44.0618 31.6527 44.3532 31.6527 44.7054C31.6527 45.0576 31.3608 45.3491 31.008 45.3491Z" fill="#00B487"/>
</svg>
