<svg width="20" height="15" viewBox="0 0 20 15" fill="none" xmlns="http://www.w3.org/2000/svg">
<g clip-path="url(#clip0_2_192)">
<path d="M19.8148 6.90877L14.2593 0.268128C14.0169 -0.0788716 13.5173 -0.0777232 13.2098 0.206074C12.9022 0.489871 12.8788 0.994125 13.1482 1.29352L17.6273 6.64021H0.740745C0.33167 6.64021 0 6.98998 0 7.42146C0 7.85294 0.33167 8.20271 0.740745 8.20271H17.6273L13.1482 13.5494C12.8542 13.8488 12.9369 14.3622 13.2444 14.646C13.5519 14.9298 14.0169 14.9095 14.2593 14.5748L19.8148 7.93416C19.9633 7.76451 19.9916 7.58041 20 7.42146C19.9861 7.25521 19.9202 7.03326 19.8148 6.90877Z" fill="#01B289"/>
</g>
<defs>
<clipPath id="clip0_2_192">
<rect width="20" height="15" fill="white"/>
</clipPath>
</defs>
</svg>
