<svg width="19" height="27" viewBox="0 0 19 27" fill="none" xmlns="http://www.w3.org/2000/svg">
<g clip-path="url(#clip0_2_296)">
<path d="M2.68 26.6H16.92C17.8 26.6 18.48 25.88 18.48 25.04V5.88C18.48 5 17.76 4.32 16.92 4.32H14.56V3.36C14.56 3.12 14.4 2.96 14.16 2.96H12.12C11.92 1.84 10.96 1 9.8 1C8.64 1 7.68 1.84 7.48 2.96H5.44C5.2 2.96 5.04 3.12 5.04 3.36V4.32H2.68C1.8 4.32 1.12 5.04 1.12 5.88V25.04C1.12 25.88 1.84 26.6 2.68 26.6ZM5.84 3.76H7.84C8.08 3.76 8.24 3.6 8.24 3.36C8.24 2.48 8.96 1.8 9.8 1.8C10.64 1.8 11.36 2.48 11.36 3.36C11.36 3.6 11.52 3.76 11.76 3.76H13.76V5.52H5.84V3.76ZM1.92 5.88C1.92 5.44 2.28 5.12 2.68 5.12H5.04V5.88C5.04 6.12 5.2 6.28 5.44 6.28H14.16C14.4 6.28 14.56 6.12 14.56 5.88V5.12H16.92C17.36 5.12 17.68 5.48 17.68 5.88V25.04C17.68 25.48 17.32 25.8 16.92 25.8H2.68C2.24 25.8 1.92 25.44 1.92 25.04V5.88Z" fill="#4C4D5F" stroke="#4C4D5F" stroke-width="0.8"/>
<path d="M9.63999 10.88H12.52C12.76 10.88 12.92 10.72 12.92 10.48C12.92 10.24 12.76 10.08 12.52 10.08H9.63999C9.39999 10.08 9.23999 10.24 9.23999 10.48C9.23999 10.72 9.43999 10.88 9.63999 10.88Z" fill="#4C4D5F" stroke="#4C4D5F" stroke-width="0.19"/>
<path d="M14.2 11.72H9.63999C9.39999 11.72 9.23999 11.88 9.23999 12.12C9.23999 12.36 9.39999 12.52 9.63999 12.52H14.2C14.44 12.52 14.6 12.36 14.6 12.12C14.6 11.88 14.44 11.72 14.2 11.72Z" fill="#4C4D5F" stroke="#4C4D5F" stroke-width="0.19"/>
<path d="M7.72 19.2H5.4C5.16 19.2 5 19.36 5 19.6V21.92C5 22.16 5.16 22.32 5.4 22.32H7.72C7.96 22.32 8.12 22.16 8.12 21.92V19.6C8.12 19.4 7.96 19.2 7.72 19.2ZM7.32 21.56H5.8V20.04H7.32V21.56Z" fill="#4C4D5F" stroke="#4C4D5F" stroke-width="0.19"/>
<path d="M9.63999 20.36H12.52C12.76 20.36 12.92 20.2 12.92 19.96C12.92 19.72 12.76 19.56 12.52 19.56H9.63999C9.39999 19.56 9.23999 19.72 9.23999 19.96C9.23999 20.2 9.43999 20.36 9.63999 20.36Z" fill="#4C4D5F" stroke="#4C4D5F" stroke-width="0.19"/>
<path d="M14.2 21.2H9.63999C9.39999 21.2 9.23999 21.36 9.23999 21.6C9.23999 21.84 9.39999 22 9.63999 22H14.2C14.44 22 14.6 21.84 14.6 21.6C14.6 21.36 14.44 21.2 14.2 21.2Z" fill="#4C4D5F" stroke="#4C4D5F" stroke-width="0.19"/>
<path d="M7.72 14.48H5.4C5.16 14.48 5 14.64 5 14.88V17.2C5 17.44 5.16 17.6 5.4 17.6H7.72C7.96 17.6 8.12 17.44 8.12 17.2V14.88C8.12 14.68 7.96 14.48 7.72 14.48ZM7.32 16.8H5.8V15.28H7.32V16.8Z" fill="#4C4D5F" stroke="#4C4D5F" stroke-width="0.19"/>
<path d="M9.63999 15.64H12.52C12.76 15.64 12.92 15.48 12.92 15.24C12.92 15 12.76 14.84 12.52 14.84H9.63999C9.39999 14.84 9.23999 15 9.23999 15.24C9.23999 15.48 9.43999 15.64 9.63999 15.64Z" fill="#4C4D5F" stroke="#4C4D5F" stroke-width="0.19"/>
<path d="M14.2 16.48H9.63999C9.39999 16.48 9.23999 16.64 9.23999 16.88C9.23999 17.12 9.39999 17.28 9.63999 17.28H14.2C14.44 17.28 14.6 17.12 14.6 16.88C14.6 16.64 14.44 16.48 14.2 16.48Z" fill="#4C4D5F" stroke="#4C4D5F" stroke-width="0.19"/>
<path d="M7.88001 10.2L6.40001 11.68L5.72001 11C5.56001 10.84 5.32001 10.84 5.16001 11C5.00001 11.16 5.00001 11.4 5.16001 11.56L6.12001 12.52C6.28001 12.68 6.52001 12.68 6.68001 12.52L8.44001 10.76C8.60001 10.6 8.60001 10.36 8.44001 10.2C8.28001 10.04 8.04001 10.04 7.88001 10.2Z" fill="#4C4D5F" stroke="#4C4D5F" stroke-width="0.19"/>
</g>
<defs>
<clipPath id="clip0_2_296">
<rect width="19" height="27" fill="white"/>
</clipPath>
</defs>
</svg>
