<svg width="18" height="25" viewBox="0 0 18 25" fill="none" xmlns="http://www.w3.org/2000/svg">
<g clip-path="url(#clip0_2_259)">
<path d="M15.7482 0H2.23269C1.05593 0 0.0981634 0.924703 0 2.09422C0 2.09422 0 8.97071 0 22.7237C0 24.2602 0.918834 25 2.23269 25H15.7482C16.9897 25 18 23.9744 18 22.7134V2.28661C18 1.0256 16.99 0 15.7482 0ZM17.0526 22.877C17.0526 23.5173 16.537 24.0385 15.9027 24.0385H2.09727C1.46304 24.0385 0.947368 23.5173 0.947368 22.877V2.123C0.947368 1.4824 1.46304 0.961538 2.09727 0.961538H15.9027C16.537 0.961538 17.0526 1.4824 17.0526 2.123V22.877ZM12.009 18.0855C12.1777 18.0855 12.3158 18.2221 12.3158 18.389V18.9272C12.3158 19.0942 12.1777 19.2308 12.009 19.2308H5.99097C5.82225 19.2308 5.68421 19.0942 5.68421 18.9272V18.389C5.68421 18.2221 5.82225 18.0855 5.99097 18.0855H12.009ZM8.67761 4.84614C8.85107 4.84439 9.01787 4.91147 9.1399 5.0321C9.26194 5.15273 9.32878 5.31661 9.32518 5.4863V6.32239H11.0342C11.2653 6.3192 11.4803 6.43802 11.5968 6.63334C11.7133 6.82866 11.7133 7.07024 11.5968 7.26556C11.4803 7.46089 11.2653 7.5797 11.0342 7.57651H8.04339C7.58791 7.57651 7.34012 7.68943 7.19555 7.82473C7.05097 7.96002 6.97524 8.14654 6.97524 8.4126C6.97524 8.58285 7.05252 8.74379 7.32907 8.92209C7.60561 9.10038 8.07558 9.24868 8.68429 9.24868C9.49391 9.24866 10.1966 9.42714 10.7405 9.77777C11.2843 10.1284 11.6751 10.6986 11.6751 11.3389C11.6751 11.9373 11.3757 12.4922 10.9074 12.8608C10.4871 13.1916 9.94018 13.3861 9.32518 13.4226V14.2652C9.32845 14.4913 9.20701 14.7017 9.00738 14.8157C8.80774 14.9297 8.56083 14.9297 8.36119 14.8157C8.16156 14.7017 8.04012 14.4913 8.04339 14.2652V13.4291H6.33435C6.10319 13.4323 5.88816 13.3135 5.77162 13.1182C5.65507 12.9229 5.65507 12.6812 5.77162 12.4859C5.88816 12.2905 6.10319 12.1717 6.33435 12.175H9.11155C9.56701 12.175 9.90253 12.0414 10.1063 11.881C10.31 11.7207 10.3933 11.551 10.3933 11.3389C10.3933 11.1687 10.316 11.0012 10.0395 10.8229C9.76296 10.6446 9.29298 10.5028 8.68429 10.5028C7.87467 10.5028 7.17193 10.3178 6.62809 9.96719C6.08425 9.61656 5.69346 9.05294 5.69346 8.4126C5.69346 7.86808 5.89368 7.31696 6.31432 6.92332C6.73496 6.52969 7.34166 6.32239 8.04339 6.32239V5.4863C8.03984 5.31888 8.10487 5.15701 8.224 5.03677C8.34313 4.91653 8.50646 4.8479 8.67761 4.84614Z" fill="#01B289"/>
</g>
<defs>
<clipPath id="clip0_2_259">
<rect width="18" height="25" fill="white"/>
</clipPath>
</defs>
</svg>
