<svg width="52" height="57" viewBox="0 0 52 57" fill="none" xmlns="http://www.w3.org/2000/svg">
<path fill-rule="evenodd" clip-rule="evenodd" d="M18.6545 1.13855H48.6569C48.9156 1.13855 49.1199 1.34001 49.1199 1.5952V44.171C49.1199 50.591 43.8494 55.7887 37.3396 55.7887H2.74769C2.48893 55.7887 2.28465 55.5872 2.28465 55.332V1.5952" fill="white"/>
<path fill-rule="evenodd" clip-rule="evenodd" d="M36.6958 56.9272H2.31977C1.67014 56.9272 1.14232 56.3953 1.14232 55.7407V1.17291C1.14232 0.777396 1.46713 0.450072 1.85961 0.450072C2.2521 0.450072 2.57691 0.777396 2.57691 1.17291V55.4815H36.6958C42.759 55.4815 47.6853 50.5171 47.6853 44.4071V1.44568H18.1273C17.7348 1.44568 17.41 1.11836 17.41 0.722842C17.41 0.327325 17.7348 0 18.1273 0H47.9425C48.5921 0 49.1199 0.531903 49.1199 1.18655V44.4207C49.1199 51.3082 43.5439 56.9272 36.6958 56.9272Z" fill="#00B487"/>
<path fill-rule="evenodd" clip-rule="evenodd" d="M51.4046 25.048V56.9272H0V25.048L22.6266 46.934C24.686 48.9139 27.9569 48.8738 29.9624 46.8404L51.4046 25.048Z" fill="#A9E2FF"/>
<path fill-rule="evenodd" clip-rule="evenodd" d="M24.9064 48.9574C23.4418 48.9574 21.9638 48.3884 20.8453 47.2504L1.35203 27.416C1.07241 27.1315 1.07241 26.6844 1.35203 26.3999C1.63165 26.1154 2.07105 26.1154 2.35066 26.3999L21.844 46.2343C23.535 47.9549 26.2779 47.9549 27.9556 46.2343L41.0576 32.903C41.3372 32.6185 41.7766 32.6185 42.0563 32.903C42.3359 33.1875 42.3359 33.6346 42.0563 33.9191L28.9542 47.2504C27.8491 48.3884 26.3844 48.9574 24.9064 48.9574Z" fill="#00B487"/>
<path fill-rule="evenodd" clip-rule="evenodd" d="M25.1311 7.96985C32.0704 7.96985 37.6967 13.5761 37.6967 20.4938C37.6967 27.4101 32.0704 33.0178 25.1311 33.0178C18.1918 33.0178 12.5656 27.4101 12.5656 20.4938C12.5656 13.5761 18.1918 7.96985 25.1311 7.96985Z" fill="#00B487"/>
<path fill-rule="evenodd" clip-rule="evenodd" d="M22.419 16.6118C22.419 15.6928 23.1058 14.9795 24.4794 14.8423V18.5734C22.8254 18.0384 22.419 17.5035 22.419 16.6118ZM26.1753 21.4952C27.8292 22.0028 28.3058 22.5652 28.3058 23.498C28.3058 24.513 27.5489 25.1715 26.1753 25.3224V21.4952ZM19.9942 25.7613C21.2977 26.6667 22.7834 27.2291 24.3953 27.3937V28.6969C24.3953 29.2044 24.8157 29.6022 25.3343 29.6022C25.8529 29.6022 26.2594 29.2044 26.2594 28.6969V27.4349C28.9926 27.1879 30.8427 25.6516 30.8427 23.3334C30.8427 21.07 29.4411 19.7943 26.1893 18.9987V14.9657C26.9182 15.1303 27.647 15.4596 28.4039 15.8848C28.6141 16.0083 28.8244 16.0768 29.0346 16.0768C29.7074 16.0768 30.24 15.5693 30.24 14.9246C30.24 14.417 29.9317 14.1015 29.6093 13.9095C28.6282 13.3059 27.5489 12.8944 26.2734 12.7572V12.2908C26.2734 11.7833 25.867 11.3855 25.3484 11.3855C24.8298 11.3855 24.4093 11.7833 24.4093 12.2908V12.7298C21.7182 12.9356 19.896 14.4993 19.896 16.7353C19.896 19.1084 21.3537 20.2744 24.4934 21.07V25.2126C23.316 25.0069 22.3209 24.513 21.3117 23.7997C21.1155 23.6489 20.8632 23.5665 20.5969 23.5665C19.9241 23.5665 19.4195 24.0741 19.4195 24.7188C19.4195 25.1989 19.6297 25.5281 19.9942 25.7613Z" fill="white"/>
</svg>
