<svg width="150" height="31" viewBox="0 0 150 31" fill="none" xmlns="http://www.w3.org/2000/svg">
<path d="M22.447 4.24927H12.3258V8.02976V10.3359V12.279V13.9727V17.791H17.8485V12.2866H13.6742V8.03732H19.8712C20.4924 8.03732 21.053 8.28683 21.4545 8.69512C21.8636 9.09585 22.1136 9.66293 22.1136 10.2754V19.9156V22.0402H19.9848H10.303C9.68182 22.0402 9.12121 21.7907 8.7197 21.3824C8.31061 20.9741 8.06061 20.4146 8.06061 19.8022V10.3434V10.162V8.03732V2.41951V0H22.447C24.5758 0 26.5 0.861951 27.9015 2.26073C29.2955 3.65195 30.1667 5.58 30.1667 7.69707V23.6583V26.6676V27.9983C30.1667 29.14 29.2349 30.07 28.0909 30.07H27.7348H26.6439H7.7197C5.59091 30.07 3.66667 29.2081 2.26515 27.8093C0.863636 26.4181 0 24.49 0 22.3729V8.02976H2.22727H4.25758H6.70455V12.279H4.25758V22.3729C4.25758 23.3181 4.64394 24.18 5.27273 24.8076C5.90152 25.4351 6.76515 25.8207 7.71212 25.8207H25.8939V7.69707C25.8939 6.75195 25.5076 5.89 24.8788 5.26244C24.2576 4.64244 23.4015 4.24927 22.447 4.24927Z" fill="#00B289"/>
<path d="M135.871 10.2754C133.917 8.92203 131.485 8.43812 129.038 8.95983C125.689 9.67812 123.023 12.4228 122.402 15.8025C121.924 18.3808 122.606 21.0045 124.265 22.993C125.924 24.9815 128.364 26.1232 130.947 26.1232C132.667 26.1232 134.333 25.6167 135.735 24.6867C135.955 25.3218 136.553 25.783 137.265 25.783H139.72V9.08837H137.788C136.947 9.08081 136.22 9.57227 135.871 10.2754ZM126.947 19.7569C126.485 19.0235 126.273 18.2371 126.303 17.3525C126.341 16.105 126.909 14.8876 127.856 14.0257C128.75 13.2167 129.795 12.8235 131.045 12.8235C131.909 12.8235 132.674 13.0276 133.394 13.4435C134.917 14.3357 135.659 15.674 135.659 17.5189C135.659 18.7362 135.212 19.772 134.295 20.6945C133.288 21.7001 132.121 22.1462 130.712 22.0403C130.121 21.995 129.53 21.8362 128.992 21.5715C128.114 21.1481 127.439 20.5508 126.947 19.7569Z" fill="#00B289"/>
<path d="M56.5681 9.87463C55.1969 9.13365 53.7121 8.76316 52.1439 8.76316C50.8181 8.76316 49.5833 9.05048 48.4545 9.62511C48.1969 9.75365 47.9545 9.89731 47.7197 10.0485V5.60268C47.7197 4.71048 46.9924 3.99219 46.106 3.99219H43.5984V25.7829H46.0303C46.7272 25.7829 47.3181 25.3444 47.5454 24.7244C47.8788 24.9437 48.2348 25.1402 48.6212 25.3141C49.803 25.8585 51.0606 26.1307 52.3485 26.1307C54.9469 26.1307 57.2272 25.0495 59.1212 22.9249C60.4545 21.4354 61.1288 19.5678 61.1288 17.3676C61.1288 15.7873 60.7121 14.3129 59.8863 12.9822C59.0606 11.659 57.9469 10.6156 56.5681 9.87463ZM56.4394 19.6132C56.0075 20.3995 55.4318 20.9893 54.6818 21.4354C53.9697 21.8512 53.2121 22.0554 52.3788 22.0554C51.5075 22.0554 50.7121 21.8588 49.9772 21.4732C48.3863 20.5961 47.6439 19.3485 47.6439 17.5415C47.6439 16.1729 48.0681 15.069 48.9469 14.1541C49.8106 13.2544 50.8863 12.8158 52.2424 12.8158C53.5985 12.8158 54.7045 13.2468 55.6363 14.1239C56.553 14.9858 56.9924 16.0595 57 17.3978C57 18.1841 56.803 18.9478 56.4394 19.6132Z" fill="#00B289"/>
<path d="M74.1515 8.76318C72.5758 8.76318 71.0985 9.16392 69.7576 9.95026C68.4167 10.7366 67.3485 11.8103 66.5833 13.1485C65.8182 14.4868 65.4318 15.9612 65.4318 17.5264C65.4318 19.0688 65.8409 20.5205 66.6364 21.8437C67.5455 23.3483 68.8182 24.5051 70.4167 25.2839C71.3258 25.73 72.2955 26.0022 73.303 26.0929C73.5909 26.1156 73.8712 26.1307 74.1515 26.1307C75.7121 26.1307 77.1818 25.73 78.5076 24.9286C80.0076 24.0288 81.1591 22.751 81.947 21.1405C82.4167 20.1727 82.697 19.1368 82.7727 18.0556C82.9621 15.4471 82.1137 13.1864 80.2349 11.3188C78.5227 9.61757 76.4773 8.76318 74.1515 8.76318ZM78.6667 17.3373C78.6667 18.1917 78.4697 18.9705 78.0758 19.7115C77.2121 21.3144 75.9621 22.0554 74.1515 22.0554C73 22.0554 71.9091 21.6471 71.0833 20.8985C70.0227 19.9383 69.5227 18.789 69.553 17.3751C69.5682 16.7551 69.7046 16.1276 69.9546 15.5756C70.3712 14.6305 70.9849 13.9349 71.8333 13.4434C72.553 13.0276 73.3106 12.8234 74.1515 12.8234C75.3485 12.8234 76.3864 13.2544 77.3182 14.1315C78.2273 14.9934 78.6667 16.0444 78.6667 17.3373Z" fill="#00B289"/>
<path d="M95.1288 8.76318C93.75 8.76318 92.5303 9.13367 91.4697 9.86709C91.1894 9.39831 90.6742 9.08074 90.0833 9.08074H87.6515V25.7754H91.7803V17.0425C91.7803 16.3166 91.8182 15.6664 91.8939 15.1295C92.0076 14.4944 92.3636 13.9727 93.0152 13.5115C93.6515 13.0427 94.3106 12.8234 95.0455 12.8234C96.3258 12.8234 97.2424 13.2695 97.9318 14.2222C98.3636 14.8271 98.5833 15.7722 98.5833 17.0349V24.1573C98.5833 25.0495 99.3106 25.7678 100.197 25.7678H102.705V17.0349C102.705 14.7061 102.174 12.8688 101.129 11.5683C99.6136 9.70831 97.5909 8.76318 95.1288 8.76318Z" fill="#00B289"/>
<path d="M145.121 10.6913V25.7754H147.629C148.523 25.7754 149.242 25.0496 149.242 24.165V9.08081H146.735C145.848 9.08081 145.121 9.7991 145.121 10.6913Z" fill="#00B289"/>
<path d="M147.674 4.12073H145.644C145.356 4.12073 145.121 3.88634 145.121 3.59902V1.57268C145.121 0.703171 145.826 0 146.697 0H149.25V2.54805C149.242 3.41756 148.545 4.12073 147.674 4.12073Z" fill="#00B289"/>
<path d="M117.167 17.1332C116.129 16.4981 114.955 15.984 113.644 15.5984C113.53 15.5606 113.394 15.5228 113.25 15.4774C113.106 15.4396 112.955 15.4018 112.795 15.364C112.462 15.243 112.152 15.0842 111.856 14.8801C111.561 14.6759 111.424 14.3886 111.447 14.0181V13.9879C111.447 13.5418 111.591 13.2015 111.886 12.9747C112.182 12.7479 112.538 12.6345 112.97 12.6345C113.341 12.6345 113.667 12.7328 113.955 12.9293C114.03 12.9823 114.091 13.0352 114.152 13.1032C114.379 13.3679 114.742 13.4737 115.061 13.3301L117.939 12.022C117.674 11.3793 117.258 10.7972 116.674 10.283C115.598 9.3152 114.386 8.8313 113.038 8.8313C111.606 8.8313 110.341 9.29252 109.227 10.2074C108.114 11.1223 107.553 12.332 107.553 13.8367C107.553 14.5172 107.682 15.1447 107.947 15.7118C108.212 16.2789 108.606 16.7854 109.136 17.2315C109.311 17.3903 109.485 17.5189 109.652 17.6247C109.818 17.7306 109.977 17.8213 110.136 17.9045C110.333 18.0028 110.53 18.0935 110.72 18.1691C110.917 18.2447 111.121 18.3279 111.333 18.4035L111.682 18.5245C111.803 18.5623 111.924 18.6001 112.061 18.6379C112.22 18.6984 112.379 18.7513 112.545 18.7967C112.712 18.842 112.886 18.9101 113.061 18.9857C113.508 19.1445 113.917 19.3486 114.28 19.6132C114.644 19.8779 114.826 20.2559 114.826 20.7398C114.826 21.2464 114.636 21.632 114.265 21.8967C113.894 22.1613 113.47 22.2898 113 22.2898C112.432 22.2898 111.977 22.1159 111.621 21.7606C111.583 21.7228 111.538 21.6774 111.508 21.632C111.106 21.1708 110.28 20.8986 109.682 21.0272L107.091 21.5942C107.326 22.7435 107.864 23.7189 108.705 24.5052C109.811 25.5411 111.197 26.0552 112.856 26.0552C113.015 26.0552 113.167 26.0476 113.326 26.025L113.795 25.9645C114.402 25.8435 114.992 25.6545 115.568 25.3823C116.144 25.1101 116.652 24.7774 117.076 24.3842C117.621 23.855 118.03 23.2652 118.311 22.615C118.583 21.9647 118.72 21.254 118.72 20.4903C118.727 18.8874 118.205 17.7608 117.167 17.1332Z" fill="#00B289"/>
</svg>
