<svg width="56" height="49" viewBox="0 0 56 49" fill="none" xmlns="http://www.w3.org/2000/svg">
<path fill-rule="evenodd" clip-rule="evenodd" d="M47.2569 16.5017H26.2538L22.7451 9.39492H3.50875C2.58144 9.39161 1.69082 9.76278 1.0328 10.4268C0.37478 11.0909 0.0032709 11.9934 0 12.9358V44.9916C0 46.9471 1.55986 48.5324 3.48404 48.5324H47.2816C48.2056 48.5324 49.0918 48.1593 49.7452 47.4953C50.3986 46.8313 50.7656 45.9306 50.7656 44.9916V20.0551C50.7588 18.0906 49.1899 16.5017 47.2569 16.5017Z" fill="#A9E2FF"/>
<path fill-rule="evenodd" clip-rule="evenodd" d="M42.9441 16.5107H55.2188V36.0843C55.2188 38.0417 53.6616 39.6305 51.7364 39.6374H7.93547C6.01504 39.6305 4.4599 38.0494 4.45312 36.0969V16.5107H42.87" fill="white"/>
<path d="M42.9441 16.5107H55.2188V36.0843C55.2188 38.0417 53.6616 39.6305 51.7364 39.6374H7.93547C6.01504 39.6305 4.4599 38.0494 4.45312 36.0969V16.5107H42.87" stroke="#00B487" stroke-linecap="round" stroke-linejoin="round"/>
<path fill-rule="evenodd" clip-rule="evenodd" d="M4.45312 14.7318V4.03913C4.45993 2.08249 6.02256 0.5 7.94781 0.5H27.1995L30.6942 7.6159H51.687C52.6193 7.60922 53.5158 7.98007 54.1785 8.6465C54.8412 9.31293 55.2155 10.2201 55.2188 11.1676V14.7318H4.45312Z" fill="white" stroke="#00B487" stroke-linecap="round" stroke-linejoin="round"/>
<path fill-rule="evenodd" clip-rule="evenodd" d="M32.9531 16.5107V29.8531L36.5093 25.8147L40.0781 29.8531V16.5107H32.9531Z" fill="#00B487"/>
</svg>
