<svg width="18" height="25" viewBox="0 0 18 25" fill="none" xmlns="http://www.w3.org/2000/svg">
<g clip-path="url(#clip0_2_205)">
<path d="M15.7482 0H2.23269C1.05593 0 0.0981634 0.924703 0 2.09422C0 2.09422 0 8.97071 0 22.7237C0 24.2602 0.918834 25 2.23269 25H15.7482C16.9897 25 18 23.9744 18 22.7134V2.28661C18 1.0256 16.99 0 15.7482 0ZM15.7485 1.14315C16.3694 1.14315 16.8743 1.6558 16.8743 2.28631V22.7131C16.8743 23.3433 16.3694 23.8562 15.7485 23.8562H2.23299C1.61209 23.8562 1.10725 23.3433 1.10725 22.7131V2.28631C1.10725 1.6558 1.61209 1.14315 2.23299 1.14315H15.7485ZM6 3C4.34315 3 3 4.34315 3 6C3 7.65685 4.34315 9 6 9C7.65685 9 9 7.65685 9 6C9 4.34315 7.65685 3 6 3ZM6 4.14C7.02725 4.14 7.86 4.97275 7.86 6C7.86 7.02725 7.02725 7.86 6 7.86C4.97275 7.86 4.14 7.02725 4.14 6C4.14 4.97275 4.97275 4.14 6 4.14ZM14.4323 13.1432H3.54246C3.23716 13.1432 2.98737 13.0068 2.98737 12.8402V12.303C2.98737 12.1363 3.23716 12 3.54246 12H14.4323C14.7376 12 14.9874 12.1363 14.9874 12.303V12.8402C14.9874 13.0068 14.7376 13.1432 14.4323 13.1432ZM14.4323 16.5729H3.54246C3.23716 16.5729 2.98737 16.4366 2.98737 16.2699V15.7327C2.98737 15.5661 3.23716 15.4298 3.54246 15.4298H14.4323C14.7376 15.4298 14.9874 15.5661 14.9874 15.7327V16.2699C14.9874 16.4366 14.7376 16.5729 14.4323 16.5729ZM14.4323 20.1432H3.54246C3.23716 20.1432 2.98737 20.0068 2.98737 19.8402V19.303C2.98737 19.1363 3.23716 19 3.54246 19H14.4323C14.7376 19 14.9874 19.1363 14.9874 19.303V19.8402C14.9874 20.0068 14.7376 20.1432 14.4323 20.1432Z" fill="#00B289"/>
</g>
<defs>
<clipPath id="clip0_2_205">
<rect width="18" height="25" fill="white"/>
</clipPath>
</defs>
</svg>
