<svg width="57" height="56" viewBox="0 0 57 56" fill="none" xmlns="http://www.w3.org/2000/svg">
<path fill-rule="evenodd" clip-rule="evenodd" d="M2.15193 28.1938C0.0489686 29.3026 0.131669 30.936 2.34096 31.8303L8.87434 34.4414C11.0836 35.3237 14.4271 34.8468 16.3056 33.3683L44.7086 10.7625C46.5741 9.27209 46.7762 9.49863 45.1564 11.2513L22.6972 35.5025C21.0668 37.2552 21.5512 39.3894 23.7605 40.2598L24.5284 40.5578C26.7495 41.4163 30.3648 42.8709 32.5622 43.777L39.8163 46.7578C42.0138 47.6639 43.8226 48.415 43.8226 48.427C43.8226 48.4389 43.8332 48.4866 43.845 48.4866C43.8568 48.4866 44.3767 46.6028 45.004 44.2897L56.0611 3.27486C56.6873 0.961816 55.4704 -0.0277871 53.3674 1.09297L2.15193 28.1938Z" fill="white"/>
<path fill-rule="evenodd" clip-rule="evenodd" d="M46.2315 9.12902C46.4087 9.12902 46.5741 9.20056 46.7159 9.35556C47.2121 9.90401 46.6568 10.5598 45.629 11.6805L23.1698 35.9317C22.5318 36.6233 22.2612 37.3863 22.4137 38.066C22.5672 38.7575 23.1343 39.3179 23.9968 39.6636L24.7647 39.9617C26.9622 40.8201 30.5774 42.2747 32.7985 43.1809L40.0526 46.1616C41.8011 46.877 42.829 47.3062 43.4551 47.5685C43.656 46.8651 43.9868 45.6489 44.4003 44.0989L55.4586 3.0841C55.683 2.26142 55.6358 1.60566 55.3522 1.3672C55.0569 1.12874 54.4189 1.23605 53.6746 1.6295L2.45911 28.7303C1.69118 29.1357 1.25404 29.6245 1.26562 30.0299C1.28949 30.4472 1.77388 30.8884 2.58907 31.2103L9.12244 33.8214C11.1191 34.6202 14.2369 34.1672 15.9275 32.8318L44.3294 10.2259C45.18 9.58209 45.7708 9.12902 46.2315 9.12902ZM43.8568 49.1185C43.7859 49.1185 43.715 49.1066 43.656 49.0827C43.5733 49.0589 43.5024 48.9993 43.4315 48.9397C42.9944 48.7489 41.5057 48.1289 39.5918 47.3539L32.3378 44.3732C30.1167 43.467 26.5014 42.0124 24.3158 41.154L23.5478 40.8559C22.2837 40.3552 21.4449 39.4729 21.185 38.364C20.9369 37.2552 21.3149 36.0867 22.2483 35.0733L42.0138 13.7193L16.7073 33.8572C14.6752 35.4668 11.06 35.9914 8.66168 35.0256L2.11649 32.4145C0.344332 31.6991 0.0371574 30.6737 0.00171421 30.1253C-0.0219146 29.5768 0.17893 28.5157 1.85658 27.6334L53.0721 0.532594C54.7615 -0.361625 55.7067 0.0675999 56.132 0.401442C56.5455 0.735283 57.1717 1.58181 56.6636 3.44179L45.6053 44.4566C44.4133 48.9039 44.4133 48.9039 44.1404 49.047C44.0695 49.0947 43.9631 49.1185 43.8568 49.1185Z" fill="#00B487"/>
<path fill-rule="evenodd" clip-rule="evenodd" d="M20.1101 55.0443C19.9801 55.4377 24.5877 48.3197 24.5877 48.3197C25.8873 46.3167 25.1548 43.9202 22.9444 43.014L17.9232 40.9394C15.7269 40.0333 14.6743 41.0944 15.5852 43.3121C15.5852 43.3121 20.2389 54.6389 20.1101 55.0443Z" fill="#A9E2FF"/>
</svg>
