<svg width="20" height="23" viewBox="0 0 20 23" fill="none" xmlns="http://www.w3.org/2000/svg">
<g clip-path="url(#clip0_2_271)">
<path d="M14.2111 1.76977H12.7956C12.1944 -0.589375 7.74667 -0.59047 7.14611 1.76977H5.69167C4.92556 1.76977 4.30278 2.3842 4.30278 3.13882V3.79979H2.22222C0.996667 3.79979 0 4.78222 0 5.99027V20.776C0 21.984 0.996667 22.9665 2.22222 22.9665H17.7778C19.0033 22.9665 20 21.984 20 20.776V5.99027C20 4.78222 19.0033 3.79979 17.7778 3.79979H15.6V3.13882C15.6 2.3842 14.9772 1.76977 14.2111 1.76977ZM17.7778 4.89503C18.3906 4.89503 18.8889 5.38624 18.8889 5.99027V20.776C18.8889 21.38 18.3906 21.8712 17.7778 21.8712H2.22222C1.60944 21.8712 1.11111 21.38 1.11111 20.776V5.99027C1.11111 5.38624 1.60944 4.89503 2.22222 4.89503H4.30278V5.16391C4.30278 5.91853 4.92556 6.53296 5.69167 6.53296H14.2111C14.9772 6.53296 15.6 5.91853 15.6 5.16391V4.89503H17.7778ZM11.7238 9.21605L9.25995 11.6447L8.27621 10.6743C7.98393 10.3862 7.51075 10.3862 7.21921 10.6735C6.92693 10.9616 6.92693 11.4281 7.21921 11.7162L8.73145 13.2075C8.80396 13.279 8.88843 13.3328 8.97739 13.3689C9.06784 13.405 9.16427 13.4234 9.25995 13.4234C9.45132 13.4234 9.64268 13.3512 9.78845 13.2075L12.7808 10.258C13.0731 9.96984 13.0731 9.50416 12.7808 9.21605C12.4885 8.92795 12.0161 8.92795 11.7238 9.21605ZM13.2222 17.6569H6.55556C6.24833 17.6569 6 17.9023 6 18.2046C6 18.5068 6.24833 18.7522 6.55556 18.7522H13.2222C13.5294 18.7522 13.7778 18.5068 13.7778 18.2046C13.7778 17.9023 13.5294 17.6569 13.2222 17.6569ZM5.41389 3.13882C5.41389 2.99041 5.54111 2.86501 5.69167 2.86501H7.635C7.94222 2.86501 8.19056 2.61967 8.19056 2.31739C8.19056 1.46146 9.11333 1.07155 9.97056 1.07155C10.8283 1.07155 11.7511 1.46146 11.7511 2.31739C11.7511 2.61967 12 2.86501 12.3067 2.86501H14.2111C14.3622 2.86501 14.4889 2.99041 14.4889 3.13882V4.13329C14.4606 4.19901 14.4444 4.27129 14.4444 4.34741C14.4444 4.42353 14.4606 4.49582 14.4889 4.56153V5.16391C14.4889 5.31231 14.3622 5.43772 14.2111 5.43772H5.69167C5.54111 5.43772 5.41389 5.31231 5.41389 5.16391V3.13882Z" fill="#4C4D5F"/>
</g>
<defs>
<clipPath id="clip0_2_271">
<rect width="20" height="23" fill="white"/>
</clipPath>
</defs>
</svg>
