<svg width="60" height="50" viewBox="0 0 60 50" fill="none" xmlns="http://www.w3.org/2000/svg">
<path fill-rule="evenodd" clip-rule="evenodd" d="M0.766785 17.6743V48.7004C0.766785 48.9694 0.979898 49.1792 1.24984 49.1792H46.2879C53.0791 49.1792 58.5775 43.7289 58.5775 36.9983V1.212C58.5775 0.942999 58.3643 0.733154 58.0958 0.733154H1.24984" fill="white"/>
<path fill-rule="evenodd" clip-rule="evenodd" d="M46.2741 49.9262H1.23606C0.554096 49.9262 0 49.3769 0 48.7009V17.6749C0 17.2664 0.340982 16.9284 0.753002 16.9284C1.16502 16.9284 1.506 17.2664 1.506 17.6749V48.4333H46.2599C52.6249 48.4333 57.7965 43.3069 57.7965 36.9975V1.49286H1.22185C0.809833 1.49286 0.46885 1.15485 0.46885 0.746428C0.46885 0.338005 0.809833 0 1.22185 0H58.0664C58.7484 0 59.3025 0.549258 59.3025 1.22527V36.9975C59.3167 44.1238 53.4632 49.9262 46.2741 49.9262Z" fill="#00B487"/>
<path fill-rule="evenodd" clip-rule="evenodd" d="M7.00491 33.9822H18.3554V9.42188H7.00491V33.9822Z" fill="#A9E2FF"/>
<path fill-rule="evenodd" clip-rule="evenodd" d="M24.2529 24.3223H35.6048V9.42188H24.2529V24.3223Z" fill="white"/>
<path fill-rule="evenodd" clip-rule="evenodd" d="M25.0059 23.5759H34.8376V10.1684H25.0059V23.5759ZM35.6048 25.0688H24.2529C23.8409 25.0688 23.4985 24.7308 23.4985 24.3224V9.42197C23.4985 9.01354 23.8409 8.67554 24.2529 8.67554H35.6048C36.0168 8.67554 36.3564 9.01354 36.3564 9.42197V24.3224C36.3564 24.7308 36.0168 25.0688 35.6048 25.0688Z" fill="#00B487"/>
<path fill-rule="evenodd" clip-rule="evenodd" d="M41.0307 28.66H52.3825V9.42188H41.0307V28.66Z" fill="white"/>
<path fill-rule="evenodd" clip-rule="evenodd" d="M41.7837 27.8995H51.6153V10.1683H41.7837V27.8995ZM52.3697 29.3924H41.0165C40.6044 29.3924 40.2635 29.0544 40.2635 28.6459V9.40781C40.2635 8.99938 40.6044 8.66138 41.0165 8.66138H52.3697C52.7818 8.66138 53.1227 8.99938 53.1227 9.40781V28.6459C53.1227 29.0684 52.7945 29.3924 52.3697 29.3924Z" fill="#00B487"/>
<path fill-rule="evenodd" clip-rule="evenodd" d="M7.00491 16.8721H18.3554V9.42188H7.00491V16.8721Z" fill="#00B487"/>
<path fill-rule="evenodd" clip-rule="evenodd" d="M24.2529 13.9427H35.6048V9.42188H24.2529V13.9427Z" fill="#00B487"/>
<path fill-rule="evenodd" clip-rule="evenodd" d="M41.0307 15.2525H52.3825V9.42188H41.0307V15.2525Z" fill="#00B487"/>
</svg>
