<svg width="47" height="54" viewBox="0 0 47 54" fill="none" xmlns="http://www.w3.org/2000/svg">
<path fill-rule="evenodd" clip-rule="evenodd" d="M21.1512 7.89673H45.9103C46.1239 7.89673 46.2924 8.06403 46.2924 8.27594V39.9743C46.2924 47.3242 40.2909 53.2789 32.8845 53.2789H8.01295C7.79941 53.2789 7.63083 53.1116 7.63083 52.9008V8.27594" fill="#A9E2FF"/>
<path fill-rule="evenodd" clip-rule="evenodd" d="M19.9713 18.5815L24.7366 15.3929L29.6367 18.5815V7.9303H19.9713V18.5815Z" fill="#00B487"/>
<path fill-rule="evenodd" clip-rule="evenodd" d="M37.0205 39.717H15.3858C15.0598 39.717 14.7901 39.4494 14.7901 39.1259C14.7901 38.8025 15.0598 38.5348 15.3858 38.5348H37.0205C37.3464 38.5348 37.6161 38.8025 37.6161 39.1259C37.6161 39.4494 37.3464 39.717 37.0205 39.717Z" fill="#00B487"/>
<path fill-rule="evenodd" clip-rule="evenodd" d="M32.8285 44.3906H15.3746C15.0487 44.3906 14.779 44.1229 14.779 43.7995C14.779 43.4761 15.0487 43.2073 15.3746 43.2073H32.8285C33.1545 43.2073 33.4242 43.4761 33.4242 43.7995C33.4242 44.1229 33.1657 44.3906 32.8285 44.3906Z" fill="#00B487"/>
<path fill-rule="evenodd" clip-rule="evenodd" d="M14.1044 0.580688H38.8636C39.0771 0.580688 39.2457 0.74687 39.2457 0.959896V36.3154C39.2457 41.6466 34.8963 45.9617 29.5241 45.9617H0.977427C0.763889 45.9617 0.595306 45.7955 0.595306 45.5836V0.959896" fill="white"/>
<path fill-rule="evenodd" clip-rule="evenodd" d="M29.5244 46.5532H0.977779C0.438315 46.5532 0 46.1194 0 45.5829V0.960286C0 0.636845 0.269732 0.368054 0.595658 0.368054C0.921585 0.368054 1.19132 0.636845 1.19132 0.960286V45.3721H29.5244C34.5594 45.3721 38.6504 41.3112 38.6504 36.3158V1.18335H14.1047C13.7788 1.18335 13.5091 0.915673 13.5091 0.591117C13.5091 0.267675 13.7788 0 14.1047 0H38.8639C39.4034 0 39.8417 0.436088 39.8417 0.970324V36.3269C39.8417 41.9581 35.2113 46.5532 29.5244 46.5532Z" fill="#00B487"/>
<path fill-rule="evenodd" clip-rule="evenodd" d="M29.9853 32.401H8.35057C8.02465 32.401 7.75491 32.1333 7.75491 31.8099C7.75491 31.4864 8.02465 31.2177 8.35057 31.2177H29.9853C30.3113 31.2177 30.581 31.4864 30.581 31.8099C30.581 32.1333 30.3113 32.401 29.9853 32.401Z" fill="#00B487"/>
<path fill-rule="evenodd" clip-rule="evenodd" d="M25.7932 37.0735H8.33931C8.01338 37.0735 7.74365 36.8058 7.74365 36.4823C7.74365 36.1589 8.01338 35.8912 8.33931 35.8912H25.7932C26.1192 35.8912 26.3889 36.1589 26.3889 36.4823C26.3889 36.8058 26.1192 37.0735 25.7932 37.0735Z" fill="#00B487"/>
<path fill-rule="evenodd" clip-rule="evenodd" d="M14.251 12.7599H7.36156C7.03563 12.7599 6.7659 12.4922 6.7659 12.1687C6.7659 11.8453 7.03563 11.5776 7.36156 11.5776H14.251C14.5769 11.5776 14.8466 11.8453 14.8466 12.1687C14.8466 12.4922 14.5769 12.7599 14.251 12.7599Z" fill="#00B487"/>
<path fill-rule="evenodd" clip-rule="evenodd" d="M10.8003 19.7415C10.4744 19.7415 10.2047 19.4739 10.2047 19.1504V12.1574C10.2047 11.834 10.4744 11.5663 10.8003 11.5663C11.1262 11.5663 11.396 11.834 11.396 12.1574V19.1504C11.4072 19.4861 11.1375 19.7415 10.8003 19.7415Z" fill="#00B487"/>
<path fill-rule="evenodd" clip-rule="evenodd" d="M24.8938 19.7415C24.7477 19.7415 24.5904 19.6857 24.478 19.5753C24.242 19.3411 24.242 18.973 24.4667 18.7388L31.3561 11.7447C31.5921 11.5105 31.963 11.5105 32.199 11.7336C32.435 11.9678 32.435 12.3358 32.2103 12.57L25.3209 19.5631C25.1973 19.6857 25.0399 19.7415 24.8938 19.7415Z" fill="#00B487"/>
<path fill-rule="evenodd" clip-rule="evenodd" d="M31.8505 19.6751C31.7044 19.6751 31.5471 19.6193 31.4347 19.5078L24.3992 12.6709C24.1632 12.4367 24.1632 12.0686 24.3879 11.8344C24.624 11.6002 24.9948 11.6002 25.2309 11.8233L32.2664 18.6601C32.5024 18.8943 32.5024 19.2624 32.2776 19.4966C32.1652 19.607 32.0079 19.6751 31.8505 19.6751Z" fill="#00B487"/>
<path fill-rule="evenodd" clip-rule="evenodd" d="M15.2283 19.1501L18.6786 12.1682L22.1177 19.1501" fill="white"/>
<path fill-rule="evenodd" clip-rule="evenodd" d="M15.2283 19.7416C15.1384 19.7416 15.0485 19.7193 14.9698 19.6858C14.6776 19.5408 14.5539 19.1839 14.7001 18.8939L18.1392 11.9009C18.2403 11.7001 18.4426 11.5663 18.6786 11.5663C18.9034 11.5663 19.1169 11.7001 19.2181 11.9009L22.6572 18.8939C22.8033 19.1839 22.6797 19.5408 22.3875 19.6858C22.0952 19.8308 21.7356 19.7081 21.5895 19.4181L18.6899 13.5181L15.779 19.4181C15.6666 19.63 15.4531 19.7416 15.2283 19.7416Z" fill="#00B487"/>
<path fill-rule="evenodd" clip-rule="evenodd" d="M21.0167 18.258H16.3302C16.0042 18.258 15.7345 17.9915 15.7345 17.668C15.7345 17.3446 16.0042 17.0758 16.3302 17.0758H21.0167C21.3427 17.0758 21.6124 17.3446 21.6124 17.668C21.6124 17.9915 21.3539 18.258 21.0167 18.258Z" fill="#00B487"/>
</svg>
