<svg width="24" height="24" viewBox="0 0 24 24" fill="none" xmlns="http://www.w3.org/2000/svg">
<g clip-path="url(#clip0_2_242)">
<path d="M12 0C5.38339 0 0 5.38319 0 12C0 18.6168 5.38339 24 12 24C18.6166 24 24 18.6168 24 12C24 5.38319 18.6166 0 12 0ZM12 22.5491C6.18317 22.5491 1.45085 17.817 1.45085 12C1.45085 6.18299 6.18317 1.4509 12 1.4509C17.8168 1.4509 22.5491 6.18299 22.5491 12C22.5491 17.817 17.8168 22.5491 12 22.5491ZM12 4.03639H10.5491V13.4509H18.1661V12H12V4.03639Z" fill="#4C4D5F"/>
</g>
<defs>
<clipPath id="clip0_2_242">
<rect width="24" height="24" fill="white"/>
</clipPath>
</defs>
</svg>
