<svg width="54" height="58" viewBox="0 0 54 58" fill="none" xmlns="http://www.w3.org/2000/svg">
<path fill-rule="evenodd" clip-rule="evenodd" d="M30.3713 52.888C29.2521 53.0293 28.1003 53.1054 26.9377 53.1054C12.3235 53.1054 0.479919 41.2555 0.479919 26.6333C0.479919 12.0111 12.3235 0.161133 26.9377 0.161133C41.552 0.161133 53.3944 12.0111 53.3944 26.6333C53.3944 29.6773 52.8848 32.6126 51.9287 35.3414" fill="white"/>
<path fill-rule="evenodd" clip-rule="evenodd" d="M26.9376 53.6815C26.6225 53.6815 26.3509 53.4206 26.3509 53.1053C26.3509 52.7901 26.6008 52.5291 26.9159 52.5291C28.0677 52.5291 29.1977 52.453 30.306 52.3117C30.6211 52.2682 30.9144 52.4965 30.9579 52.8118C31.0014 53.1271 30.7732 53.4206 30.4581 53.4641C29.2955 53.6054 28.1111 53.6815 26.9376 53.6815Z" fill="#00B487"/>
<mask id="mask0_2_371" style="mask-type:alpha" maskUnits="userSpaceOnUse" x="0" y="0" width="54" height="51">
<path d="M0 0H53.0801V50.8873H0V0Z" fill="white"/>
</mask>
<g mask="url(#mask0_2_371)">
<path fill-rule="evenodd" clip-rule="evenodd" d="M15.3653 3.41134C15.1491 3.41134 14.9415 3.29175 14.8448 3.08519C14.7036 2.80253 14.822 2.45464 15.1165 2.31331C17.3765 1.21529 19.767 0.432541 22.2432 0.00855168C22.5583 -0.0458059 22.8626 0.160753 22.9169 0.476027C22.9712 0.791301 22.7659 1.0957 22.4508 1.15006C20.0821 1.56318 17.7883 2.31331 15.6261 3.35698C15.5391 3.38959 15.4522 3.41134 15.3653 3.41134ZM41.1494 4.88986C41.0419 4.88986 40.9321 4.85725 40.8343 4.80289C38.8025 3.50918 36.6087 2.509 34.315 1.8241C34.0107 1.73712 33.8369 1.41098 33.9238 1.10658C34.0107 0.802173 34.3378 0.628228 34.6409 0.7152C37.0422 1.43272 39.336 2.47639 41.4548 3.83533C41.7264 4.00927 41.8014 4.36803 41.6275 4.62895C41.5189 4.79202 41.3342 4.88986 41.1494 4.88986ZM2.33849 17.4791C2.26135 17.4791 2.19724 17.4682 2.12118 17.4356C1.82672 17.316 1.6746 16.979 1.79521 16.6855C2.7177 14.359 3.96834 12.1629 5.49931 10.1625C5.69597 9.9125 6.05454 9.85815 6.31423 10.0538C6.56414 10.2495 6.61847 10.6083 6.42397 10.8692C4.95602 12.7826 3.7608 14.8808 2.88178 17.1094C2.7829 17.3377 2.56667 17.4791 2.33849 17.4791ZM52.4932 20.36C52.2432 20.36 52.0053 20.1861 51.939 19.936C51.3208 17.6204 50.3754 15.3917 49.1357 13.337C48.9738 13.0652 49.0607 12.7065 49.3323 12.5434C49.604 12.3803 49.9626 12.4673 50.1244 12.7391C51.4185 14.8917 52.4062 17.2182 53.0582 19.6425C53.1462 19.9469 52.9615 20.2731 52.6464 20.3492C52.592 20.3492 52.5366 20.36 52.4932 20.36ZM2.21789 36.6564C1.98971 36.6564 1.76153 36.5151 1.6746 36.2868C0.783622 33.9386 0.219696 31.4816 0.00129646 28.9811C-0.0193482 28.6659 0.20883 28.3832 0.523933 28.3506C0.839037 28.318 1.12154 28.5572 1.15305 28.8833C1.3595 31.2859 1.893 33.6342 2.75139 35.8737C2.85896 36.1672 2.7177 36.5042 2.41347 36.6238C2.35914 36.6456 2.28308 36.6564 2.21789 36.6564ZM15.0828 50.8873C14.9959 50.8873 14.9089 50.8655 14.822 50.822C12.5837 49.6914 10.5084 48.2672 8.6612 46.5604C8.42216 46.343 8.41238 45.9733 8.62969 45.745C8.84592 45.5059 9.21644 45.495 9.44462 45.7124C11.2157 47.3431 13.2041 48.713 15.3436 49.7892C15.6261 49.9306 15.7467 50.2784 15.6054 50.5611C15.4957 50.7677 15.2903 50.8873 15.0828 50.8873Z" fill="#00B487"/>
</g>
<path fill-rule="evenodd" clip-rule="evenodd" d="M51.9286 35.9284C51.8634 35.9284 51.7982 35.9175 51.733 35.8957C51.4287 35.787 51.2766 35.4609 51.3744 35.1565C51.7439 34.0911 52.0481 32.9931 52.2763 31.8842C52.3415 31.5689 52.6457 31.3732 52.9608 31.4384C53.2759 31.5037 53.4715 31.8081 53.4063 32.1233C53.1673 33.2866 52.8522 34.4281 52.461 35.537C52.3849 35.7762 52.1676 35.9284 51.9286 35.9284Z" fill="#00B487"/>
<path fill-rule="evenodd" clip-rule="evenodd" d="M44.3661 39.168C49.3882 39.168 53.4606 43.2426 53.4606 48.2674C53.4606 53.2933 49.3882 57.3669 44.3661 57.3669C39.3429 57.3669 35.2716 53.2933 35.2716 48.2674C35.2716 43.2426 39.3429 39.168 44.3661 39.168Z" fill="#A9E2FF"/>
<path fill-rule="evenodd" clip-rule="evenodd" d="M26.6331 11.5109V27.1115L33.511 33.9932" fill="white"/>
<path fill-rule="evenodd" clip-rule="evenodd" d="M33.5111 34.5799C33.359 34.5799 33.2178 34.5255 33.0982 34.4059L26.2203 27.5243C26.1116 27.4156 26.0464 27.2633 26.0464 27.1111V11.5105C26.0464 11.1952 26.3072 10.9343 26.6223 10.9343C26.9374 10.9343 27.1982 11.1952 27.1982 11.5105V26.872L33.9132 33.5797C34.1413 33.808 34.1413 34.1668 33.9132 34.3951C33.8056 34.5255 33.6643 34.5799 33.5111 34.5799Z" fill="#00B487"/>
<path fill-rule="evenodd" clip-rule="evenodd" d="M26.9376 23.589C28.624 23.589 29.9909 24.9566 29.9909 26.6439C29.9909 28.3311 28.624 29.6988 26.9376 29.6988C25.2513 29.6988 23.8844 28.3311 23.8844 26.6439C23.8844 24.9566 25.2513 23.589 26.9376 23.589Z" fill="#00B487"/>
<path fill-rule="evenodd" clip-rule="evenodd" d="M43.6276 51.409C43.4743 51.409 43.3233 51.3438 43.2147 51.2351L40.6612 48.6694C40.4331 48.4411 40.4331 48.0823 40.6612 47.854C40.8883 47.6257 41.248 47.6257 41.4762 47.854L43.6276 50.0066L47.6467 45.9841C47.8749 45.7558 48.2335 45.7558 48.4616 45.9841C48.6898 46.2124 48.6898 46.5712 48.4616 46.7995L44.0296 51.2351C43.9307 51.3546 43.7797 51.409 43.6276 51.409Z" fill="#00B487"/>
</svg>
