<svg width="408" height="351" viewBox="0 0 408 351" fill="none" xmlns="http://www.w3.org/2000/svg">
<g clip-path="url(#clip0_2_436)">
<path fill-rule="evenodd" clip-rule="evenodd" d="M382.31 148.5H397.901C398.153 148.5 398.355 148.704 398.355 148.957V191.776C398.355 198.232 393.141 203.464 386.709 203.464H352.51C352.26 203.464 352.057 203.26 352.057 203.009V164.515" fill="#BAE1FF"/>
<path fill-rule="evenodd" clip-rule="evenodd" d="M366.525 162L372.233 158.239L378.099 162V149.464H366.525V162Z" fill="#00B388"/>
<path fill-rule="evenodd" clip-rule="evenodd" d="M387.977 187.071H361.471C361.067 187.071 360.738 186.64 360.738 186.107C360.738 185.574 361.067 185.143 361.471 185.143H387.977C388.382 185.143 388.709 185.574 388.709 186.107C388.709 186.64 388.382 187.071 387.977 187.071Z" fill="#00B388"/>
<path fill-rule="evenodd" clip-rule="evenodd" d="M382.18 192.857H360.515C360.105 192.857 359.773 192.426 359.773 191.893C359.773 191.36 360.105 190.929 360.515 190.929H382.18C382.59 190.929 382.922 191.36 382.922 191.893C382.922 192.426 382.59 192.857 382.18 192.857Z" fill="#00B388"/>
<path fill-rule="evenodd" clip-rule="evenodd" d="M312.353 282.177C312.189 279.495 310.468 278.838 308.523 280.707L302.784 286.247C300.846 288.119 299.782 291.782 300.429 294.391L310.447 334.013C311.103 336.618 310.783 336.724 309.736 334.247L295.244 299.997C294.202 297.52 291.772 297.031 289.847 298.918L289.178 299.568C287.255 301.454 284.07 304.512 282.113 306.365L275.656 312.469C273.7 314.325 272.088 315.836 272.071 315.835C272.057 315.831 272.009 315.822 272 315.832C271.991 315.842 273.694 317.244 275.786 318.947L312.853 349.138C314.944 350.843 316.521 350.046 316.357 347.366L312.353 282.177Z" fill="white"/>
<mask id="mask0_2_436" style="mask-type:alpha" maskUnits="userSpaceOnUse" x="271" y="278" width="47" height="73">
<path d="M271.327 278.913H317.167V351H271.327V278.913Z" fill="white"/>
</mask>
<g mask="url(#mask0_2_436)">
<path fill-rule="evenodd" clip-rule="evenodd" d="M311.491 336.517C311.406 336.705 311.259 336.834 311.033 336.91C310.233 337.174 309.817 336.294 309.15 334.713L294.646 300.333C294.235 299.352 293.578 298.727 292.793 298.57C292.012 298.415 291.166 298.738 290.41 299.48L289.74 300.134C287.835 302.009 284.644 305.079 282.662 306.963L276.198 313.093C274.644 314.571 273.726 315.444 273.157 315.957C273.794 316.486 274.888 317.384 276.289 318.528L313.386 348.836C314.131 349.444 314.829 349.705 315.206 349.514C315.583 349.322 315.781 348.609 315.723 347.652L311.716 282.212V282.211C311.657 281.234 311.36 280.55 310.925 280.383C310.489 280.214 309.806 280.522 309.098 281.204L303.353 286.764C301.597 288.465 300.609 291.898 301.193 294.259L311.218 334.03C311.517 335.22 311.704 336.046 311.491 336.517ZM271.39 315.661C271.422 315.588 271.465 315.523 271.521 315.465C271.588 315.394 271.677 315.339 271.777 315.301C272.177 314.932 273.507 313.679 275.208 312.062L281.672 305.934C283.649 304.055 286.832 300.992 288.733 299.119L289.404 298.464C290.509 297.38 291.812 296.922 293.076 297.172C294.342 297.425 295.369 298.352 295.969 299.782L308.735 330.046L299.802 294.603C299.099 291.761 300.244 287.788 302.354 285.743L308.098 280.183C309.657 278.679 310.863 278.83 311.444 279.054C312.023 279.278 313.016 279.973 313.146 282.125L317.153 347.565C317.287 349.724 316.399 350.508 315.858 350.782C315.316 351.058 314.158 351.313 312.476 349.938L275.378 319.63C271.355 316.344 271.355 316.344 271.329 316.008C271.32 315.888 271.342 315.768 271.39 315.661Z" fill="#00B388"/>
</g>
<path fill-rule="evenodd" clip-rule="evenodd" d="M275.874 288.33C275.54 288.018 280.622 296.025 280.622 296.025C282.052 298.283 284.806 298.62 286.729 296.768L291.125 292.55C293.051 290.699 292.456 289.126 289.795 289.046C289.794 289.044 276.217 288.651 275.874 288.33Z" fill="#BAE1FF"/>
<path fill-rule="evenodd" clip-rule="evenodd" d="M313.874 100.012C312.48 100.194 311.059 100.286 309.616 100.286C291.505 100.286 276.823 85.6078 276.823 67.4999C276.823 49.3934 291.505 34.7142 309.616 34.7142C327.729 34.7142 342.411 49.3934 342.411 67.4999C342.411 71.2775 341.771 74.9055 340.596 78.2831" fill="white"/>
<path fill-rule="evenodd" clip-rule="evenodd" d="M309.396 101.25C308.994 101.25 308.652 100.888 308.652 100.441C308.652 99.9936 308.96 99.6316 309.361 99.6316C310.809 99.6316 312.23 99.5297 313.619 99.3289C314.02 99.2681 314.383 99.5829 314.434 100.027C314.485 100.471 314.205 100.877 313.807 100.935C312.356 101.145 310.871 101.25 309.396 101.25Z" fill="#00B388"/>
<path fill-rule="evenodd" clip-rule="evenodd" d="M295.817 38.9234C295.551 38.9234 295.297 38.7761 295.173 38.523C295 38.1695 295.148 37.7424 295.504 37.5697C298.293 36.216 301.257 35.2587 304.312 34.7258C304.708 34.6549 305.072 34.9173 305.14 35.3042C305.208 35.6912 304.949 36.0607 304.559 36.129C301.636 36.6391 298.798 37.5563 296.128 38.851C296.027 38.9006 295.921 38.9234 295.817 38.9234ZM327.674 40.747C327.542 40.747 327.408 40.7108 327.289 40.6358C324.782 39.0398 322.069 37.8054 319.228 36.9645C318.847 36.852 318.633 36.4557 318.744 36.0781C318.857 35.7006 319.254 35.485 319.633 35.5988C322.604 36.4771 325.439 37.7679 328.058 39.4348C328.391 39.6464 328.489 40.0869 328.275 40.4189C328.14 40.6318 327.909 40.747 327.674 40.747ZM279.702 56.2477C279.615 56.2477 279.526 56.2316 279.44 56.1968C279.072 56.0522 278.894 55.6385 279.039 55.2716C280.179 52.401 281.718 49.7003 283.614 47.2434C283.855 46.9315 284.303 46.8725 284.616 47.1135C284.93 47.3532 284.988 47.8018 284.748 48.1124C282.932 50.4649 281.459 53.0503 280.368 55.7978C280.257 56.0776 279.987 56.2477 279.702 56.2477ZM341.696 59.7918C341.38 59.7918 341.091 59.5829 341.007 59.2643C340.24 56.4084 339.073 53.6729 337.541 51.1303C337.338 50.7942 337.448 50.3564 337.785 50.1529C338.125 49.9494 338.563 50.0592 338.767 50.3966C340.368 53.0517 341.586 55.9116 342.387 58.8961C342.488 59.275 342.262 59.666 341.882 59.7677C341.819 59.7851 341.758 59.7918 341.696 59.7918ZM279.558 79.8743C279.271 79.8743 279 79.7003 278.891 79.4151C277.786 76.5297 277.091 73.5024 276.825 70.4135C276.792 70.0212 277.083 69.6771 277.477 69.6436C277.862 69.6061 278.217 69.9007 278.25 70.293C278.503 73.248 279.169 76.1454 280.227 78.9063C280.367 79.2745 280.183 79.6869 279.813 79.8261C279.729 79.8583 279.644 79.8743 279.558 79.8743ZM295.458 97.3928C295.351 97.3928 295.242 97.37 295.138 97.3178C292.369 95.932 289.805 94.166 287.517 92.0706C287.227 91.8041 287.207 91.3543 287.474 91.0637C287.743 90.7745 288.194 90.7558 288.484 91.0209C290.674 93.0279 293.129 94.7176 295.78 96.0458C296.132 96.2199 296.275 96.6497 296.097 97.0005C295.972 97.2509 295.72 97.3928 295.458 97.3928Z" fill="#00B388"/>
<path fill-rule="evenodd" clip-rule="evenodd" d="M340.323 78.1071C340.235 78.1071 340.146 78.0946 340.058 78.0652C339.637 77.9311 339.416 77.5062 339.563 77.1191C340.076 75.7539 340.5 74.3397 340.818 72.9157C340.907 72.5132 341.326 72.2533 341.768 72.3371C342.204 72.4196 342.484 72.8137 342.395 73.2161C342.062 74.703 341.621 76.1815 341.083 77.6083C340.968 77.9143 340.656 78.1071 340.323 78.1071Z" fill="#00B388"/>
<path fill-rule="evenodd" clip-rule="evenodd" d="M342.411 93.5357C342.411 99.9263 337.229 105.107 330.837 105.107C324.445 105.107 319.262 99.9263 319.262 93.5357C319.262 87.145 324.445 81.9642 330.837 81.9642C337.229 81.9642 342.411 87.145 342.411 93.5357Z" fill="#BAE1FF"/>
<path fill-rule="evenodd" clip-rule="evenodd" d="M309.617 48.2142V67.6193L317.333 76.1785" fill="white"/>
<path fill-rule="evenodd" clip-rule="evenodd" d="M317.604 77.1429C317.427 77.1429 317.249 77.0714 317.114 76.9284L308.855 68.2252C308.726 68.0891 308.652 67.9021 308.652 67.7083V47.9813C308.652 47.5772 308.963 47.25 309.346 47.25C309.73 47.25 310.04 47.5772 310.04 47.9813V67.4059L318.094 75.8946C318.366 76.1792 318.366 76.6425 318.094 76.9284C317.959 77.0714 317.781 77.1429 317.604 77.1429Z" fill="#00B388"/>
<path fill-rule="evenodd" clip-rule="evenodd" d="M313.475 66.5364C313.475 68.6669 311.747 70.3929 309.618 70.3929C307.485 70.3929 305.759 68.6669 305.759 66.5364C305.759 64.406 307.485 62.6786 309.618 62.6786C311.747 62.6786 313.475 64.406 313.475 66.5364Z" fill="#00B388"/>
<path fill-rule="evenodd" clip-rule="evenodd" d="M330.692 97.3928C330.511 97.3928 330.337 97.3193 330.208 97.1881L327.179 94.0966C326.912 93.8236 326.912 93.3814 327.179 93.1085C327.447 92.8368 327.879 92.8355 328.147 93.1085L330.692 95.7066L335.456 90.8475C335.723 90.5746 336.157 90.5746 336.423 90.8475C336.691 91.1205 336.691 91.5627 336.423 91.8356L331.176 97.1881C331.049 97.3193 330.875 97.3928 330.692 97.3928Z" fill="#00B388"/>
<path fill-rule="evenodd" clip-rule="evenodd" d="M279.069 167.856L258.622 146.209C258.448 146.025 258.456 145.736 258.638 145.562L289.668 116.035C294.347 111.583 301.734 111.781 306.168 116.477L329.747 141.438C329.92 141.622 329.913 141.91 329.731 142.085L290.561 179.357" fill="white"/>
<path fill-rule="evenodd" clip-rule="evenodd" d="M306.126 116.668L329.553 141.457C329.996 141.925 329.976 142.666 329.508 143.11L290.592 180.124C290.307 180.397 289.855 180.385 289.584 180.097C289.313 179.811 289.325 179.358 289.611 179.086L328.338 142.251L305.091 117.652C300.962 113.284 294.061 113.1 289.706 117.242L259.065 146.384L279.201 167.691C279.471 167.977 279.461 168.43 279.174 168.702C278.888 168.973 278.437 168.963 278.166 168.675L257.851 147.177C257.409 146.711 257.429 145.97 257.895 145.526L288.724 116.203C293.649 111.518 301.457 111.727 306.126 116.668Z" fill="#00B388"/>
<path fill-rule="evenodd" clip-rule="evenodd" d="M273.929 128.296L297.286 106.071L332.766 143.631L309.409 165.857L309.822 134.065C309.86 131.181 307.565 128.811 304.691 128.768L273.929 128.296Z" fill="#BAE1FF"/>
<path fill-rule="evenodd" clip-rule="evenodd" d="M308.989 130.604C310.009 131.702 310.621 133.198 310.58 134.826L309.837 163.218C309.827 163.62 309.497 163.939 309.102 163.929C308.708 163.917 308.396 163.581 308.407 163.18L309.149 134.788C309.213 132.333 307.307 130.284 304.9 130.218L286.2 129.71C285.805 129.699 285.493 129.364 285.504 128.961C285.515 128.557 285.844 128.239 286.239 128.25L304.939 128.758C306.536 128.803 307.968 129.504 308.989 130.604Z" fill="#00B388"/>
<path fill-rule="evenodd" clip-rule="evenodd" d="M279.77 140.367C284.796 135.603 292.732 135.816 297.497 140.839C302.261 145.864 302.05 153.797 297.024 158.56C291.999 163.325 284.063 163.114 279.298 158.088C274.533 153.065 274.745 145.13 279.77 140.367Z" fill="#00B388"/>
<path fill-rule="evenodd" clip-rule="evenodd" d="M287.216 153.647C286.577 154.241 285.644 154.246 284.661 153.413L287.248 151.01C287.942 152.455 287.835 153.073 287.216 153.647ZM288.184 147.993C287.469 146.566 287.559 145.889 288.207 145.285C288.908 144.635 289.86 144.709 290.843 145.522L288.184 147.993ZM295.127 149.364C294.916 147.912 294.349 146.558 293.427 145.381L294.335 144.539C294.685 144.214 294.689 143.673 294.357 143.33C294.025 142.986 293.483 142.972 293.133 143.297L292.257 144.111C290.324 142.457 288.07 142.21 286.462 143.705C284.896 145.159 284.909 146.913 286.453 149.601L283.65 152.206C283.294 151.615 283.052 150.92 282.863 150.138C282.808 149.92 282.723 149.729 282.586 149.589C282.156 149.144 281.463 149.116 281.011 149.538C280.659 149.863 280.64 150.266 280.72 150.613C280.932 151.662 281.348 152.638 282.065 153.581L281.747 153.879C281.396 154.205 281.382 154.736 281.714 155.078C282.046 155.422 282.598 155.445 282.948 155.12L283.256 154.833C285.131 156.487 287.384 156.694 288.941 155.247C290.59 153.716 290.455 152 288.99 149.391L291.863 146.72C292.482 147.642 292.778 148.615 292.936 149.751C292.961 149.978 293.065 150.206 293.231 150.379C293.662 150.824 294.344 150.84 294.797 150.419C295.107 150.113 295.196 149.76 295.127 149.364Z" fill="white"/>
<path fill-rule="evenodd" clip-rule="evenodd" d="M199.052 228.638L215.389 234.411C221.921 236.719 225.357 243.915 223.06 250.481L209.208 290.089L201.827 294.107L198.573 286.331L190.777 290.203L187.211 282.316L179.519 286.225L176.161 278.411L168.469 282.32L165.901 274.785L183.761 223.714" fill="#BAE1FF"/>
<path fill-rule="evenodd" clip-rule="evenodd" d="M188.443 234.424L204.78 240.197C211.313 242.505 214.747 249.7 212.45 256.267L198.599 295.875L191.218 299.893L187.964 292.116L180.168 295.989L176.6 288.101L168.909 292.01L165.551 284.196L157.859 288.105L155.291 280.571L173.15 229.5" fill="white"/>
<path fill-rule="evenodd" clip-rule="evenodd" d="M191.041 300.817C190.85 300.749 190.696 300.604 190.618 300.417L187.632 293.291L180.452 296.851C180.277 296.938 180.047 296.934 179.893 296.884C179.71 296.819 179.562 296.682 179.482 296.504L176.194 289.245L169.102 292.843C168.928 292.931 168.725 292.944 168.541 292.878C168.539 292.878 168.536 292.876 168.534 292.876C168.349 292.808 168.199 292.667 168.12 292.486L165.036 285.319L157.957 288.911C157.772 289.004 157.551 289.018 157.363 288.934C157.172 288.857 157.022 288.698 156.955 288.502L154.365 280.914C154.312 280.762 154.314 280.596 154.366 280.443L172.381 229.017C172.512 228.642 172.921 228.445 173.294 228.576C173.667 228.709 173.863 229.119 173.733 229.494L155.801 280.686L158.044 287.255L165.069 283.691C165.242 283.603 165.444 283.589 165.629 283.654C165.63 283.656 165.633 283.656 165.635 283.657C165.821 283.725 165.971 283.865 166.049 284.047L169.134 291.215L176.214 287.622C176.561 287.447 177.027 287.611 177.189 287.967L180.48 295.233L187.68 291.663C187.856 291.575 188.071 291.584 188.248 291.634C188.432 291.704 188.582 291.846 188.658 292.029L191.632 299.128L198.14 295.592L212.018 255.971C214.2 249.742 210.926 242.895 204.72 240.705L188.242 234.891C187.869 234.76 187.674 234.349 187.805 233.974C187.935 233.601 188.345 233.404 188.717 233.535L205.195 239.348C212.147 241.8 215.814 249.472 213.371 256.447L199.4 296.331C199.34 296.5 199.222 296.639 199.066 296.726L191.62 300.771C191.442 300.867 191.232 300.884 191.041 300.817Z" fill="#00B388"/>
<path fill-rule="evenodd" clip-rule="evenodd" d="M187.892 249.722C188.201 248.897 189.074 248.471 190.405 248.775L189.158 252.109C187.797 251.122 187.595 250.517 187.892 249.722ZM189.763 255.247C191.134 256.207 191.383 256.857 191.07 257.694C190.732 258.597 189.801 258.959 188.48 258.673L189.763 255.247ZM182.571 257.155C183.483 258.365 184.68 259.327 186.123 259.968L185.686 261.136C185.517 261.588 185.778 262.077 186.258 262.236C186.74 262.395 187.256 262.162 187.425 261.711L187.847 260.583C190.474 261.197 192.708 260.399 193.484 258.326C194.238 256.308 193.367 254.736 190.597 253.016L191.947 249.406C192.571 249.775 193.14 250.291 193.703 250.91C193.861 251.082 194.033 251.213 194.231 251.278C194.852 251.483 195.517 251.196 195.735 250.612C195.904 250.16 195.725 249.788 195.479 249.512C194.764 248.664 193.895 247.974 192.758 247.45L192.911 247.038C193.08 246.587 192.834 246.102 192.354 245.943C191.872 245.785 191.344 246.012 191.175 246.463L191.026 246.862C188.455 246.223 186.238 247.056 185.488 249.061C184.692 251.186 185.662 252.67 188.318 254.353L186.933 258.057C185.9 257.507 185.146 256.766 184.438 255.816C184.303 255.622 184.093 255.463 183.854 255.384C183.231 255.178 182.582 255.471 182.364 256.056C182.224 256.471 182.313 256.83 182.571 257.155Z" fill="#00B388"/>
<path fill-rule="evenodd" clip-rule="evenodd" d="M195.806 274.782L171.205 266.517C170.83 266.392 170.632 265.998 170.765 265.64C170.896 265.28 171.308 265.092 171.683 265.218L196.284 273.482C196.659 273.609 196.857 274.001 196.725 274.361C196.593 274.72 196.181 274.909 195.806 274.782Z" fill="#00B388"/>
<path fill-rule="evenodd" clip-rule="evenodd" d="M191.951 278.641L172.169 272.249C171.794 272.127 171.597 271.751 171.729 271.406C171.861 271.062 172.271 270.881 172.646 271.002L192.428 277.394C192.802 277.516 192.999 277.892 192.867 278.237C192.736 278.581 192.325 278.762 191.951 278.641Z" fill="#00B388"/>
<path fill-rule="evenodd" clip-rule="evenodd" d="M47.0874 206.357H1.41952C1.1678 206.357 0.964539 206.561 0.964539 206.814V249.633C0.964539 256.089 6.17934 261.321 12.611 261.321H46.8074C47.0592 261.321 47.2624 261.117 47.2624 260.866V253.283" fill="white"/>
<mask id="mask1_2_436" style="mask-type:alpha" maskUnits="userSpaceOnUse" x="0" y="204" width="48" height="57">
<path d="M0 204.869H47.5019V260.92H0V204.869Z" fill="white"/>
</mask>
<g mask="url(#mask1_2_436)">
<path fill-rule="evenodd" clip-rule="evenodd" d="M46.3364 260.92H12.3043C5.52034 260.92 -0.000305176 255.389 -0.000305176 248.59V206.037C-0.000305176 205.394 0.522153 204.869 1.16518 204.869H46.6137C47.0076 204.869 47.3264 205.188 47.3264 205.583C47.3264 205.979 47.0076 206.297 46.6137 206.297H1.42641V248.59C1.42641 254.602 6.30537 259.492 12.3043 259.492H46.0765V252.219C46.0765 251.824 46.394 251.503 46.7879 251.503C47.1831 251.503 47.5019 251.824 47.5019 252.219V259.753C47.5019 260.397 46.9781 260.92 46.3364 260.92Z" fill="#00B388"/>
</g>
<mask id="mask2_2_436" style="mask-type:alpha" maskUnits="userSpaceOnUse" x="0" y="0" width="408" height="352">
<path d="M0 351.964H408V0H0V351.964Z" fill="white"/>
</mask>
<g mask="url(#mask2_2_436)">
<path fill-rule="evenodd" clip-rule="evenodd" d="M7.71631 240.107H41.4752V215.036H7.71631V240.107Z" fill="white"/>
<path fill-rule="evenodd" clip-rule="evenodd" d="M8.20862 239.632H40.9842V215.512H8.20862V239.632ZM41.712 241.071H7.48088C7.07871 241.071 6.75177 240.749 6.75177 240.352V214.792C6.75177 214.395 7.07871 214.071 7.48088 214.071H41.712C42.1155 214.071 42.4397 214.395 42.4397 214.792V240.352C42.4397 240.749 42.1155 241.071 41.712 241.071Z" fill="#00B388"/>
<path fill-rule="evenodd" clip-rule="evenodd" d="M13.5035 241.071C12.9705 241.071 12.539 240.755 12.539 240.364V215.743C12.539 215.352 12.9705 215.036 13.5035 215.036C14.0366 215.036 14.4681 215.352 14.4681 215.743V240.364C14.4681 240.755 14.0366 241.071 13.5035 241.071Z" fill="#00B388"/>
<path fill-rule="evenodd" clip-rule="evenodd" d="M29.9007 241.071C29.3677 241.071 28.9362 240.755 28.9362 240.364V215.743C28.9362 215.352 29.3677 215.036 29.9007 215.036C30.4337 215.036 30.8652 215.352 30.8652 215.743V240.364C30.8652 240.755 30.4337 241.071 29.9007 241.071Z" fill="#00B388"/>
<path fill-rule="evenodd" clip-rule="evenodd" d="M41.7221 219.857H8.4339C8.03733 219.857 7.71631 219.426 7.71631 218.893C7.71631 218.36 8.03733 217.929 8.4339 217.929H41.7221C42.1187 217.929 42.4397 218.36 42.4397 218.893C42.4397 219.426 42.1187 219.857 41.7221 219.857Z" fill="#00B388"/>
<path fill-rule="evenodd" clip-rule="evenodd" d="M31.7425 248.786L28.9362 256.5L36.6525 253.849" fill="white"/>
<path fill-rule="evenodd" clip-rule="evenodd" d="M28.6546 256.5C28.4711 256.5 28.294 256.424 28.1631 256.285C27.9808 256.09 27.9231 255.806 28.0142 255.552L30.6748 248.276C30.807 247.914 31.201 247.732 31.554 247.865C31.9069 248.002 32.0853 248.406 31.9544 248.768L29.7969 254.67L35.7535 252.633C36.1154 252.51 36.4979 252.709 36.6172 253.075C36.7366 253.444 36.5428 253.839 36.186 253.961L28.8702 256.464C28.7997 256.488 28.7265 256.5 28.6546 256.5Z" fill="#00B388"/>
<path fill-rule="evenodd" clip-rule="evenodd" d="M35.7125 253.607L30.8652 248.761L56.8832 222.75L61.7305 227.596L35.7125 253.607Z" fill="#BAE1FF"/>
<path fill-rule="evenodd" clip-rule="evenodd" d="M31.658 248.886L35.5899 252.816L62.3563 226.055C63.4408 224.971 63.4408 223.208 62.3563 222.124C61.2745 221.043 59.5103 221.041 58.4245 222.124L31.658 248.886ZM35.5899 254.571C35.4039 254.571 35.2179 254.5 35.0756 254.36L30.114 249.4C29.9773 249.264 29.9007 249.079 29.9007 248.886C29.9007 248.692 29.9773 248.509 30.114 248.371L57.3961 221.096C59.0481 219.443 61.734 219.446 63.3861 221.096C65.0368 222.746 65.0368 225.433 63.3861 227.083L36.1041 254.36C35.9618 254.5 35.7759 254.571 35.5899 254.571Z" fill="#00B388"/>
<path fill-rule="evenodd" clip-rule="evenodd" d="M64.5896 105.815L72.3244 76.8623C72.3903 76.6172 72.2465 76.3653 72.0061 76.2986L30.9073 65.0197C24.7119 63.3192 18.3285 67.0307 16.6507 73.3101L7.73237 106.696C7.66655 106.943 7.80894 107.194 8.05208 107.261L59.9297 121.5" fill="white"/>
<path fill-rule="evenodd" clip-rule="evenodd" d="M31.0265 64.075L72.4345 75.2606C73.0611 75.4308 73.4333 76.0762 73.2642 76.7014L65.4695 105.415C65.3667 105.798 64.9715 106.025 64.5857 105.921C64.2027 105.817 63.9753 105.423 64.0795 105.038L71.8038 76.5799L30.6502 65.4617C24.8006 63.8819 18.7533 67.344 17.1697 73.1799L8.25173 106.037L60.2668 120.088C60.6525 120.191 60.8786 120.585 60.7744 120.969C60.6701 121.352 60.2749 121.578 59.8905 121.475L7.62101 107.354C6.99435 107.185 6.6235 106.54 6.79269 105.915L15.7797 72.8045C17.5703 66.2043 24.4108 62.2885 31.0265 64.075Z" fill="#00B388"/>
<path fill-rule="evenodd" clip-rule="evenodd" d="M52.391 84.8572L62.695 87.6229L56.6019 109.929L46.2979 107.163L52.391 84.8572Z" fill="#BAE1FF"/>
<path fill-rule="evenodd" clip-rule="evenodd" d="M34.4313 90.6428L44.3688 93.4234L40.8027 107.036L30.8652 104.255L34.4313 90.6428Z" fill="white"/>
<path fill-rule="evenodd" clip-rule="evenodd" d="M43.8471 92.8171L35.4703 90.3378L32.3507 102.933L40.7276 105.411L43.8471 92.8171ZM35.1756 88.7398L44.8401 91.6001C45.1962 91.7056 45.4056 92.1058 45.3103 92.495L41.841 106.496C41.7444 106.887 41.3783 107.115 41.0235 107.01L31.3577 104.15C31.0016 104.044 30.7922 103.644 30.8888 103.255L34.3568 89.2524C34.4534 88.8646 34.8195 88.6343 35.1756 88.7398Z" fill="#00B388"/>
<path fill-rule="evenodd" clip-rule="evenodd" d="M20.0115 81.9642L29.9007 84.732L25.3218 102.214L15.4326 99.4464L20.0115 81.9642Z" fill="white"/>
<path fill-rule="evenodd" clip-rule="evenodd" d="M29.2913 85.0658L20.4141 82.6095L16.042 99.1124L24.9178 101.57L29.2913 85.0658ZM20.1019 81.0249L30.3435 83.86C30.7208 83.9632 30.9426 84.3597 30.8403 84.7467L26.0988 102.644C25.9965 103.03 25.6086 103.258 25.2313 103.153L14.9898 100.319C14.6138 100.215 14.3906 99.8184 14.4929 99.4328L19.2344 81.5341C19.3367 81.1485 19.7246 80.9217 20.1019 81.0249Z" fill="#00B388"/>
<path fill-rule="evenodd" clip-rule="evenodd" d="M48.2054 101.25L58.8369 104.047L56.9294 110.893L46.2979 108.096L48.2054 101.25Z" fill="#00B388"/>
<path fill-rule="evenodd" clip-rule="evenodd" d="M31.0369 99.3214L41.4752 102.038L40.339 106.071L29.9007 103.357L31.0369 99.3214Z" fill="#00B388"/>
<path fill-rule="evenodd" clip-rule="evenodd" d="M16.8585 95.4642L27.0071 98.1087L25.5812 103.179L15.4326 100.534L16.8585 95.4642Z" fill="#00B388"/>
<path fill-rule="evenodd" clip-rule="evenodd" d="M115.992 137.005L144.938 129.23C145.184 129.165 145.435 129.308 145.502 129.548L155.679 166.339C158.039 174.871 152.934 183.671 144.275 185.998L115.205 193.805C114.96 193.871 114.708 193.73 114.641 193.487L100.312 141.686" fill="#BAE1FF"/>
<path fill-rule="evenodd" clip-rule="evenodd" d="M118.884 148.5L123.053 143.611L129.248 145.651L126.109 134.036L115.745 136.885L118.884 148.5Z" fill="#00B388"/>
<path fill-rule="evenodd" clip-rule="evenodd" d="M144.16 168.137L119.529 174.512C119.154 174.61 118.766 174.399 118.664 174.042C118.56 173.684 118.783 173.317 119.16 173.22L143.789 166.846C144.165 166.747 144.553 166.958 144.656 167.315C144.758 167.673 144.537 168.04 144.16 168.137Z" fill="#00B388"/>
<path fill-rule="evenodd" clip-rule="evenodd" d="M141.244 175.907L120.533 181.261C120.14 181.362 119.735 181.143 119.629 180.772C119.522 180.4 119.753 180.017 120.146 179.914L140.857 174.56C141.25 174.459 141.653 174.678 141.761 175.051C141.868 175.422 141.637 175.805 141.244 175.907Z" fill="#00B388"/>
<path fill-rule="evenodd" clip-rule="evenodd" d="M105.368 129.29L134.288 121.516C134.533 121.45 134.786 121.593 134.851 121.833L146.193 162.871C147.902 169.057 144.204 175.441 137.931 177.125L104.582 186.091C104.338 186.158 104.085 186.015 104.018 185.774L89.7021 133.971" fill="white"/>
<path fill-rule="evenodd" clip-rule="evenodd" d="M139.404 177.996L106.33 187.03C105.707 187.2 105.06 186.831 104.89 186.205L90.6925 134.009C90.5873 133.627 90.8126 133.23 91.1958 133.126C91.5791 133.022 91.9731 133.248 92.077 133.632L106.206 185.572L139.026 176.608C144.855 175.016 148.304 168.97 146.716 163.129L135.538 122.035L107.11 129.799C106.727 129.903 106.333 129.677 106.229 129.294C106.124 128.91 106.35 128.516 106.732 128.411L135.413 120.577C136.037 120.407 136.684 120.776 136.854 121.402L148.102 162.75C149.898 169.356 145.996 176.195 139.404 177.996Z" fill="#00B388"/>
<path fill-rule="evenodd" clip-rule="evenodd" d="M133.55 163.317L108.919 169.69C108.544 169.788 108.157 169.578 108.053 169.22C107.951 168.863 108.173 168.495 108.549 168.398L133.179 162.024C133.555 161.927 133.943 162.137 134.046 162.493C134.148 162.851 133.927 163.218 133.55 163.317Z" fill="#00B388"/>
<path fill-rule="evenodd" clip-rule="evenodd" d="M131.599 169.156L110.888 174.511C110.495 174.612 110.091 174.393 109.983 174.021C109.877 173.65 110.109 173.266 110.5 173.165L131.212 167.811C131.604 167.709 132.008 167.928 132.116 168.3C132.222 168.672 131.991 169.055 131.599 169.156Z" fill="#00B388"/>
<path fill-rule="evenodd" clip-rule="evenodd" d="M109.469 144.809L102.113 146.551C101.761 146.634 101.396 146.454 101.3 146.148C101.203 145.841 101.412 145.525 101.765 145.442L109.12 143.699C109.474 143.615 109.837 143.796 109.934 144.103C110.03 144.41 109.822 144.726 109.469 144.809Z" fill="#00B388"/>
<path fill-rule="evenodd" clip-rule="evenodd" d="M107.609 153.299C107.308 153.393 106.995 153.189 106.913 152.842L105.155 145.463C105.073 145.116 105.251 144.76 105.553 144.666C105.856 144.572 106.167 144.776 106.25 145.121L108.008 152.501C108.091 152.847 107.912 153.205 107.609 153.299Z" fill="#00B388"/>
<path fill-rule="evenodd" clip-rule="evenodd" d="M124.434 149.44C124.247 149.486 124.04 149.468 123.856 149.375C123.485 149.186 123.351 148.755 123.559 148.415L129.732 138.255C129.94 137.916 130.41 137.792 130.781 137.982C131.154 138.172 131.287 138.602 131.08 138.943L124.905 149.101C124.801 149.275 124.627 149.392 124.434 149.44Z" fill="#00B388"/>
<path fill-rule="evenodd" clip-rule="evenodd" d="M133.55 147.509C133.379 147.559 133.189 147.54 133.021 147.439L122.858 141.266C122.519 141.058 122.397 140.589 122.585 140.217C122.776 139.846 123.206 139.712 123.546 139.919L133.708 146.093C134.048 146.3 134.172 146.769 133.982 147.141C133.885 147.329 133.727 147.456 133.55 147.509Z" fill="#00B388"/>
<path fill-rule="evenodd" clip-rule="evenodd" d="M112.851 151.393L114.56 142.714L120.567 149.352" fill="white"/>
<path fill-rule="evenodd" clip-rule="evenodd" d="M112.722 152.333C112.628 152.361 112.527 152.365 112.425 152.345C112.065 152.27 111.83 151.897 111.898 151.511L113.527 142.33C113.575 142.062 113.759 141.848 114.004 141.775C114.248 141.703 114.508 141.789 114.675 141.992L120.402 149.014C120.644 149.31 120.618 149.761 120.343 150.02C120.068 150.281 119.649 150.25 119.408 149.957L114.574 144.03L113.199 151.778C113.15 152.054 112.959 152.263 112.722 152.333Z" fill="#00B388"/>
<path fill-rule="evenodd" clip-rule="evenodd" d="M119.083 148.935L113.744 150.403C113.367 150.506 112.979 150.283 112.876 149.904C112.774 149.523 112.995 149.132 113.372 149.029L118.711 147.561C119.088 147.458 119.475 147.681 119.577 148.061C119.681 148.44 119.459 148.832 119.083 148.935Z" fill="#00B388"/>
<path fill-rule="evenodd" clip-rule="evenodd" d="M79.5864 69.485C63.2397 75.5102 48.551 85.3512 40.0443 101.186C31.2656 117.527 32.7283 128.578 40.0322 135.425C47.4197 142.349 60.7831 144.969 75.5674 144.409" fill="white"/>
<path d="M79.5864 69.485C63.2397 75.5102 48.551 85.3512 40.0443 101.186C31.2656 117.527 32.7283 128.578 40.0322 135.425C47.4197 142.349 60.7831 144.969 75.5674 144.409" stroke="#00B388"/>
<path fill-rule="evenodd" clip-rule="evenodd" d="M140.823 120.536C135.031 124.88 129.777 128.472 125.167 131.001C113.71 137.287 98.6144 141.845 83.9149 143.679L92.1049 124.268L140.823 120.536Z" fill="white"/>
<path d="M188.085 95.4642L297.078 288.321" stroke="#00B388"/>
<path fill-rule="evenodd" clip-rule="evenodd" d="M158.184 111.857C145.399 111.857 135.035 101.486 135.035 88.6945V79.0899C135.035 66.2986 145.399 55.9286 158.184 55.9286C170.969 55.9286 181.333 66.2986 181.333 79.0899V88.6945C181.333 101.486 170.969 111.857 158.184 111.857Z" fill="#BAE1FF"/>
<path fill-rule="evenodd" clip-rule="evenodd" d="M163.972 106.071C151.187 106.071 140.823 95.7013 140.823 82.9101V73.3055C140.823 60.5129 151.187 50.1428 163.972 50.1428C176.757 50.1428 187.121 60.5129 187.121 73.3055V82.9101C187.121 95.7013 176.757 106.071 163.972 106.071Z" fill="white"/>
<path fill-rule="evenodd" clip-rule="evenodd" d="M155.748 51.5748C148.29 51.5748 142.222 57.783 142.222 65.4137V91.7648C142.222 99.3955 148.29 105.604 155.748 105.604H172.195C179.653 105.604 185.721 99.3955 185.721 91.7648V65.4137C185.721 57.783 179.653 51.5748 172.195 51.5748H155.748ZM172.195 107.036H155.748C147.518 107.036 140.823 100.185 140.823 91.7648V65.4137C140.823 56.993 147.518 50.1428 155.748 50.1428H172.195C180.425 50.1428 187.121 56.993 187.121 65.4137V91.7648C187.121 100.185 180.425 107.036 172.195 107.036Z" fill="#00B388"/>
<path fill-rule="evenodd" clip-rule="evenodd" d="M155.291 71.3572L150.398 77.1429L147.574 73.8019" fill="white"/>
<path fill-rule="evenodd" clip-rule="evenodd" d="M150.323 78.1072C150.141 78.1072 149.968 78.0337 149.84 77.9025L146.811 74.811C146.543 74.5381 146.543 74.0959 146.811 73.8229C147.078 73.5513 147.511 73.55 147.778 73.8229L150.323 76.421L155.087 71.562C155.353 71.2891 155.787 71.2891 156.055 71.5607C156.322 71.8337 156.322 72.2759 156.055 72.5488L150.807 77.9025C150.679 78.0337 150.505 78.1072 150.323 78.1072Z" fill="#00B388"/>
<path fill-rule="evenodd" clip-rule="evenodd" d="M181.585 74.25H162.755C162.361 74.25 162.043 73.8168 162.043 73.2839C162.043 72.7528 162.361 72.3214 162.755 72.3214H181.585C181.979 72.3214 182.298 72.7528 182.298 73.2839C182.298 73.8168 181.979 74.25 181.585 74.25Z" fill="#00B388"/>
<path fill-rule="evenodd" clip-rule="evenodd" d="M155.291 85.8214L150.398 91.6071L147.574 88.2656" fill="white"/>
<path fill-rule="evenodd" clip-rule="evenodd" d="M150.323 90.6428C150.141 90.6428 149.968 90.5693 149.84 90.4394L146.811 87.3466C146.543 87.0749 146.543 86.6314 146.811 86.3598C147.078 86.0868 147.511 86.0868 147.778 86.3598L150.323 88.9566L155.087 84.0975C155.353 83.8246 155.787 83.8246 156.055 84.0975C156.322 84.3705 156.322 84.8127 156.055 85.0856L150.807 90.4394C150.679 90.5693 150.505 90.6428 150.323 90.6428Z" fill="#00B388"/>
<path fill-rule="evenodd" clip-rule="evenodd" d="M173.872 89.6786H161.788C161.396 89.6786 161.078 89.2472 161.078 88.7143C161.078 88.1814 161.396 87.75 161.788 87.75H173.872C174.264 87.75 174.582 88.1814 174.582 88.7143C174.582 89.2472 174.264 89.6786 173.872 89.6786Z" fill="#00B388"/>
<path fill-rule="evenodd" clip-rule="evenodd" d="M187.121 65.5714H141.787L142.59 60.75H185.801L187.121 65.5714Z" fill="#00B388"/>
<path d="M138.894 18.8143C139.824 16.938 142.518 16.8557 143.565 18.6723L171.688 67.5" stroke="#00B388"/>
<path fill-rule="evenodd" clip-rule="evenodd" d="M371.348 170.298C304.164 188.906 257.511 8.40651 199.66 0.964233L371.348 170.298Z" fill="white"/>
<path d="M163.489 62.7172C163.489 62.7172 67.9198 49.6621 39.8117 101.883C11.7023 154.102 88.5332 152.239 126.011 131.723C163.489 111.208 244.068 19.8216 309.655 27.2821C375.242 34.7425 438.954 152.239 371.494 170.889C304.032 189.538 257.184 8.63091 199.093 1.1718C141.003 -6.28866 150.372 189.538 182.228 238.029C214.085 286.519 317.15 206.324 317.15 206.324H47.3064L138.815 18.711C139.74 16.8143 142.424 16.7325 143.466 18.5675L171.466 67.9256" stroke="#00B388"/>
<path fill-rule="evenodd" clip-rule="evenodd" d="M376.926 140.786H406.582C406.832 140.786 407.035 140.99 407.035 141.242V184.06C407.035 190.517 401.822 195.75 395.389 195.75H361.193C360.941 195.75 360.738 195.545 360.738 195.293V141.242" fill="white"/>
<path fill-rule="evenodd" clip-rule="evenodd" d="M395.759 196.714H361.896C361.257 196.714 360.738 196.181 360.738 195.527V141.006C360.738 140.605 361.055 140.279 361.447 140.279C361.839 140.279 362.156 140.605 362.156 141.006V195.263H395.759C401.727 195.263 406.582 190.3 406.582 184.198V141.271H377.476C377.084 141.271 376.767 140.947 376.767 140.546C376.767 140.146 377.084 139.821 377.476 139.821H406.84C407.48 139.821 408 140.351 408 141.006V184.198C408 191.099 402.508 196.714 395.759 196.714Z" fill="#00B388"/>
<path fill-rule="evenodd" clip-rule="evenodd" d="M376.17 153.321L381.879 149.561L387.745 153.321V140.786H376.17V153.321Z" fill="#00B388"/>
<path fill-rule="evenodd" clip-rule="evenodd" d="M396.658 179.357H370.151C369.746 179.357 369.418 178.925 369.418 178.394C369.418 177.86 369.746 177.429 370.151 177.429H396.658C397.062 177.429 397.39 177.86 397.39 178.394C397.39 178.925 397.062 179.357 396.658 179.357Z" fill="#00B388"/>
<path fill-rule="evenodd" clip-rule="evenodd" d="M391.825 184.179H370.162C369.751 184.179 369.418 183.747 369.418 183.214C369.418 182.681 369.751 182.25 370.162 182.25H391.825C392.235 182.25 392.567 182.681 392.567 183.214C392.567 183.747 392.235 184.179 391.825 184.179Z" fill="#00B388"/>
</g>
</g>
<defs>
<clipPath id="clip0_2_436">
<rect width="408" height="351" fill="white"/>
</clipPath>
</defs>
</svg>
